<?xml version="1.0" encoding="UTF-8" standalone="no"?>
<!-- Created with Inkscape (http://www.inkscape.org/) -->

<svg
   xmlns:dc="http://purl.org/dc/elements/1.1/"
   xmlns:cc="http://creativecommons.org/ns#"
   xmlns:rdf="http://www.w3.org/1999/02/22-rdf-syntax-ns#"
   xmlns:svg="http://www.w3.org/2000/svg"
   xmlns="http://www.w3.org/2000/svg"
   xmlns:sodipodi="http://sodipodi.sourceforge.net/DTD/sodipodi-0.dtd"
   xmlns:inkscape="http://www.inkscape.org/namespaces/inkscape"
   width="32"
   height="95.533119"
   viewBox="0 0 8.4666663 25.276472"
   version="1.1"
   id="svg8"
   inkscape:version="0.92.1 r15371"
   sodipodi:docname="icon-input-1.svg">
  <defs
     id="defs2" />
  <sodipodi:namedview
     id="base"
     pagecolor="#ffffff"
     bordercolor="#666666"
     borderopacity="1.0"
     inkscape:pageopacity="0.0"
     inkscape:pageshadow="2"
     inkscape:zoom="1.4"
     inkscape:cx="81.132662"
     inkscape:cy="-7.1426554"
     inkscape:document-units="mm"
     inkscape:current-layer="layer1"
     showgrid="false"
     fit-margin-top="0"
     fit-margin-left="0"
     fit-margin-right="0"
     fit-margin-bottom="0"
     inkscape:window-width="1366"
     inkscape:window-height="716"
     inkscape:window-x="1358"
     inkscape:window-y="-8"
     inkscape:window-maximized="1"
     units="px" />
  <metadata
     id="metadata5">
    <rdf:RDF>
      <cc:Work
         rdf:about="">
        <dc:format>image/svg+xml</dc:format>
        <dc:type
           rdf:resource="http://purl.org/dc/dcmitype/StillImage" />
        <dc:title></dc:title>
      </cc:Work>
    </rdf:RDF>
  </metadata>
  <g
     inkscape:label="Layer 1"
     inkscape:groupmode="layer"
     id="layer1"
     transform="translate(-58.397633,-122.2081)">
    <g
       id="g27"
       transform="matrix(0.26458333,0,0,0.26458333,58.397766,122.21233)">
      <polyline
         id="polyline10"
         points="91.12 3.21 107.06 3.21 107.06 5.48 99.09 9.16 91.12 5.16"
         transform="translate(-90.000001,80.357144)" />
      <polyline
         id="polyline12"
         points="91.12 7.18 91.12 15.16 107.14 15.16 107.14 7.18 99.09 11.31"
         transform="translate(-90.000001,80.357144)" />
      <path
         id="path14"
         d="M 6.14,1.47 A 4.07,4.07 0 0 0 3.47,0 3.75,3.75 0 0 0 0.68,0.89 C -0.65,2.3 0.3,5 0.76,6.39 c 2.56,7.42 10,10.88 14.17,11.79 a 3.91,3.91 0 0 0 3.17,-0.29 c 1.49,-1.07 2,-4.08 0.46,-5.58 -1.09,-1.06 -3.1,-1.28 -4,-0.5 -0.39,0.35 -0.26,0.65 -0.58,0.83 -0.81,0.46 -2,-1.25 -5.17,-3.58 C 7.5,8.06 6.41,7.46 6.4,6.43 6.4,6 6.59,5.93 6.77,5.31 A 4.55,4.55 0 0 0 6.14,1.47 Z"
         inkscape:connector-curvature="0" />
    </g>
  </g>
</svg>
