<?xml version="1.0" encoding="UTF-8" standalone="no"?>
<svg
   xmlns:dc="http://purl.org/dc/elements/1.1/"
   xmlns:cc="http://creativecommons.org/ns#"
   xmlns:rdf="http://www.w3.org/1999/02/22-rdf-syntax-ns#"
   xmlns:svg="http://www.w3.org/2000/svg"
   xmlns="http://www.w3.org/2000/svg"
   xmlns:sodipodi="http://sodipodi.sourceforge.net/DTD/sodipodi-0.dtd"
   xmlns:inkscape="http://www.inkscape.org/namespaces/inkscape"
   viewBox="0 0 21.94 21.38"
   width="23"
   height="21"
   version="1.1"
   id="svg3688"
   sodipodi:docname="icon-like.svg"
   inkscape:version="0.92.1 r15371">
  <metadata
     id="metadata3692">
    <rdf:RDF>
      <cc:Work
         rdf:about="">
        <dc:format>image/svg+xml</dc:format>
        <dc:type
           rdf:resource="http://purl.org/dc/dcmitype/StillImage" />
      </cc:Work>
    </rdf:RDF>
  </metadata>
  <sodipodi:namedview
     pagecolor="#ffffff"
     bordercolor="#666666"
     borderopacity="1"
     objecttolerance="10"
     gridtolerance="10"
     guidetolerance="10"
     inkscape:pageopacity="0"
     inkscape:pageshadow="2"
     inkscape:window-width="1920"
     inkscape:window-height="1017"
     id="namedview3690"
     showgrid="false"
     inkscape:zoom="57.107291"
     inkscape:cx="13.956089"
     inkscape:cy="12.742401"
     inkscape:window-x="-8"
     inkscape:window-y="-8"
     inkscape:window-maximized="1"
     inkscape:current-layer="svg3688" />
  <defs
     id="defs3682">
    <style
       id="style3680">.cls-1{fill:#ccc;}</style>
  </defs>
  <path
     class="cls-1"
     d="m 13.76,0 c 0.545057,-0.05703116 1.095663,0.02555974 1.6,0.24 0.196008,0.57064042 0.330111,1.1606962 0.4,1.76 0.06898,0.6648821 -0.15793,1.435967 -0.403396,2.0756368 -0.319553,1.0027831 -1.594965,2.4542536 -1.592145,3.3365684 0.639589,0.017378 2.991179,0.1274341 3.554662,0.1113287 0.733226,0.00878 2.189281,0.079005 2.643161,0.3477274 1.673033,1.3782105 0.795278,2.8650557 0.763708,3.2373507 -0.04262,0.502622 0.726555,1.8309 0.740077,2.450488 -0.180365,0.306505 -0.254911,0.793035 -0.536067,0.9709 0,0 -0.05,0.15 -0.06,0.22 0,1.1 0.14,2.15 -0.89,3.08 -0.34,0.31 -0.23,1.27 -1,1.75 -0.52,0.34 -0.78,1.06 -1.22,1.55 -0.210167,0.164721 -0.473488,0.246563 -0.74,0.23 H 7.18 C 6.1983275,21.484301 5.3614927,20.652389 5.48,19.67 V 7.2 C 5.526024,6.676558 6.3812571,6.566537 6.7490396,6.1912427 8.4229523,4.9574892 9.893587,3.4821556 10.999471,2.3351506 12.054068,1.4749333 12.447439,0.35962702 13.76,0 Z m -5.8832277,16.933227 0.048982,1.956113 c 0.014318,0.571795 7.1881902,0.08486 7.7081902,0.194856 0.27,0.06 1.270363,-0.525132 1.380363,-0.715132 0.178769,-0.387778 0.65919,-0.833805 0.692067,-1.259538 0.26,-1.28 0.722696,-1.340418 0.962696,-2.800418 0.02001,-0.192816 -0.0098,-0.951772 -0.02985,-1.144588 -0.07877,-0.889764 -0.138131,-1.505779 -0.189625,-2.37115 L 17.846818,9.9644247 C 17.150892,9.5948757 17.082449,9.6568795 15.636389,9.6560356 l -1.994765,0.021411 C 12.993435,9.6844044 9.8334915,10.410293 11.18865,7.7676211 L 13.260907,3.218535 c -1.416579,1.613105 -5.0176047,4.7845488 -5.2993656,5.41541 -0.18,2.669999 0.1113363,5.554937 -0.084769,8.299282 z"
     id="path3684"
     inkscape:connector-curvature="0"
     style="fill:#999"
     sodipodi:nodetypes="cccccccsccccccccccccccsccccccccscccc" />
  <path
     class="cls-1"
     d="m 0,7.7 h 3.35 c 1.249033,0 1.21,-0.1033962 1.21,1.11 V 21.39 H 0 Z"
     id="path3686"
     inkscape:connector-curvature="0"
     style="fill:#999"
     sodipodi:nodetypes="cssccc" />
</svg>
