<?xml version="1.0" encoding="UTF-8" standalone="no"?>
<svg
   xmlns:dc="http://purl.org/dc/elements/1.1/"
   xmlns:cc="http://creativecommons.org/ns#"
   xmlns:rdf="http://www.w3.org/1999/02/22-rdf-syntax-ns#"
   xmlns:svg="http://www.w3.org/2000/svg"
   xmlns="http://www.w3.org/2000/svg"
   id="svg8"
   version="1.1"
   viewBox="0 0 66.324448 6.4558101"
   height="6.4558101mm"
   width="66.324448mm">
  <defs
     id="defs2" />
  <metadata
     id="metadata5">
    <rdf:RDF>
      <cc:Work
         rdf:about="">
        <dc:format>image/svg+xml</dc:format>
        <dc:type
           rdf:resource="http://purl.org/dc/dcmitype/StillImage" />
        <dc:title></dc:title>
      </cc:Work>
    </rdf:RDF>
  </metadata>
  <g
     transform="translate(-50,-190.54419)"
     id="layer1">
    <g
       id="g40">
      <path
         style="fill:#FFFFFF;stroke-width:0.26458332"
         d="m 80.00002,192.76669 h 0.79375 v -0.74083 c 0,-0.29104 0.0794,-0.71438 0.29104,-1.00542 0.21167,-0.29104 0.47625,-0.47625 1.00542,-0.47625 0.84667,0 1.16417,0.13229 1.16417,0.13229 l -0.18521,1.00542 c 0,0 -0.37042,-0.0794 -0.635,-0.0794 -0.26458,0 -0.58208,0.10583 -0.58208,0.37041 v 0.79375 h 1.21708 l -0.0794,1.05834 h -1.1377 V 197 h -1.05834 v -3.175 H 80 Z"
         id="path10" />
      <path
         style="fill:#FFFFFF;stroke-width:0.26458332"
         d="m 56.32351,192.44921 c -0.23813,0.10584 -0.47625,0.18521 -0.74084,0.21167 0.26459,-0.15875 0.47625,-0.42333 0.58209,-0.71437 -0.26459,0.15875 -0.52917,0.26458 -0.82021,0.3175 -0.26459,-0.26459 -0.60854,-0.42334 -0.97896,-0.42334 -0.71438,0 -1.29646,0.58209 -1.29646,1.29646 0,0.10583 0,0.21167 0.0265,0.29104 -1.08479,-0.0529 -2.03729,-0.58208 -2.67229,-1.34937 -0.13229,0.18521 -0.18521,0.42333 -0.18521,0.66146 0,0.44979 0.23812,0.84666 0.58208,1.08479 -0.21166,0 -0.42333,-0.0529 -0.58208,-0.15875 v 0.0265 c 0,0.635 0.44979,1.16416 1.05833,1.27 -0.10583,0.0265 -0.21166,0.0529 -0.34396,0.0529 -0.0794,0 -0.15875,0 -0.23812,-0.0265 0.15875,0.52917 0.635,0.89959 1.21708,0.89959 -0.44979,0.34396 -1.00541,0.55562 -1.61396,0.55562 -0.10583,0 -0.21166,0 -0.3175,-0.0265 0.58209,0.37042 1.27,0.58209 1.98438,0.58209 2.40771,0 3.70417,-1.98438 3.70417,-3.70417 v -0.15875 c 0.23812,-0.18521 0.44979,-0.42333 0.635,-0.68792"
         id="path12" />
      <path
         style="fill:#FFFFFF;stroke-width:0.26458332"
         d="m 115.13292,190.65 h -3.91583 c -0.66146,0 -1.21709,0.55563 -1.21709,1.21709 v 3.88937 c 0,0.68792 0.55563,1.24354 1.21709,1.24354 h 3.88937 c 0.68792,0 1.21708,-0.55562 1.21708,-1.21708 v -3.91583 c 0.0265,-0.66146 -0.52916,-1.21709 -1.19062,-1.21709 z m 0.34396,0.74084 h 0.13229 v 1.05833 h -1.08479 v -1.08479 z m -3.20146,1.7727 c 0.21167,-0.29104 0.52917,-0.47625 0.89958,-0.47625 0.37042,0 0.71438,0.18521 0.89959,0.47625 0.13229,0.18521 0.21166,0.39688 0.21166,0.66146 0,0.60854 -0.50271,1.11125 -1.11125,1.11125 -0.60854,0 -1.11125,-0.50271 -1.11125,-1.11125 0,-0.23812 0.0794,-0.47625 0.21167,-0.66146 z m 3.46604,2.61938 c 0,0.34396 -0.26458,0.60854 -0.60854,0.60854 h -3.91583 c -0.34396,0 -0.60855,-0.26458 -0.60855,-0.60854 V 193.19 h 0.9525 c -0.0794,0.21167 -0.13229,0.42334 -0.13229,0.66146 0,0.9525 0.76729,1.74625 1.74625,1.74625 0.9525,0 1.74625,-0.76729 1.74625,-1.74625 0,-0.23812 -0.0529,-0.44979 -0.13229,-0.66146 h 0.9525 z"
         id="path16" />
    </g>
  </g>
</svg>
