<svg xmlns="http://www.w3.org/2000/svg" viewBox="0 0 459.6 79.07">
<defs><style>.cls-1{fill:#fff;}</style></defs>
<path class="cls-1" d="M238.43,79.07a8.92,8.92,0,0,0-2-.79,36.59,36.59,0,0,1-10.78-3.42,38.59,38.59,0,0,1-10.38-7.37,36.8,36.8,0,0,1-7.67-11,37.56,37.56,0,0,1-2.57-8.05A50.87,50.87,0,0,1,203.81,38,35.62,35.62,0,0,1,206,25.82,37.42,37.42,0,0,1,217.7,9.56a44.44,44.44,0,0,1,11.56-6.63C236.47,0,244-.47,251.52.37a40.8,40.8,0,0,1,9.54,2.53,51,51,0,0,1,8.43,4.15,32.35,32.35,0,0,1,10.88,10.42,48.42,48.42,0,0,1,4.56,8.75,42.38,42.38,0,0,1,1.82,8.63,34.2,34.2,0,0,1-1.27,14.43,53.86,53.86,0,0,1-3.37,9.16,34.92,34.92,0,0,1-9.37,11.5,40.76,40.76,0,0,1-12.25,6.82c-1.64.58-3.4.85-5.09,1.31-1,.28-2,.66-3.05,1Zm6.06-18.91c10.93.63,21.58-8.15,21.91-21.39.24-9.55-8.57-19.4-20.28-19.88-11-.45-21.39,8.24-21.79,18.86C223.93,49,232.13,59.67,244.49,60.16Z"/>
<path class="cls-1" d="M25.31,79.07a4.13,4.13,0,0,0-.77-.29c-3.68-.63-7.42-1-11-2a53.76,53.76,0,0,1-8.19-3.25A36.67,36.67,0,0,1,1.2,71.22c-1.37-.84-1.5-1.65-.72-3.08C2.43,64.59,4.34,61,6.26,57.44c.36-.66.7-1.34,1.1-2s1.12-.63,1.75-.21c2.09,1.39,4.09,2.93,6.26,4.16a18.61,18.61,0,0,0,12.79,2.4,7.76,7.76,0,0,0,5.71-4A5.51,5.51,0,0,0,33,51.08a12,12,0,0,0-5-3c-3.52-1.13-7.13-2-10.63-3.22a29.61,29.61,0,0,1-8.63-4.25c-3.63-2.81-5.26-6.63-6-11.06a28.13,28.13,0,0,1,.7-11.62A21.68,21.68,0,0,1,9.76,7.37,23.32,23.32,0,0,1,23.12,1,49.06,49.06,0,0,1,28.94.38a51.94,51.94,0,0,1,5.83.57,50.76,50.76,0,0,1,15,4.36c2.43,1.08,2.48,1.61,1.1,3.92-1,1.6-1.73,3.31-2.58,5-1.09,2.12-2.14,4.26-3.27,6.36a1.22,1.22,0,0,1-1.84.44c-2.36-1.22-4.65-2.72-7.16-3.48-3.94-1.2-8-1.21-11.3,1.76-2.35,2.13-2.18,5.56.79,7.73a22.27,22.27,0,0,0,7.1,3c4.7,1.38,9.44,2.66,13.67,5.22a17.69,17.69,0,0,1,7.73,9,22.37,22.37,0,0,1,1.2,9.56,34.05,34.05,0,0,1-2,9.69,20,20,0,0,1-6.11,8.42A30.55,30.55,0,0,1,34.49,77.8c-2.08.5-4.25.64-6.37,1a9.59,9.59,0,0,0-1.13.31Z"/>
<path class="cls-1" d="M352.11,46.7c.07-.73.2-1.46.2-2.18q0-19.79,0-39.59c0-2.66,0-2.66,2.59-2.66H369.8c2.16,0,2.35.18,2.35,2.3q0,35,0,69.94c0,2.2-.16,2.35-2.41,2.36-5.2,0-10.4,0-15.6,0a3.06,3.06,0,0,1-2.64-1.31l-11.84-15-15-19.08c-2.12-2.7-4.22-5.41-6.35-8.09-.21-.27-.64-.36-1-.54a4.48,4.48,0,0,0-.46,1,7,7,0,0,0,0,1.32q0,19.31,0,38.63c0,.48,0,1,0,1.44a1.51,1.51,0,0,1-1.75,1.64q-8.22,0-16.44,0c-1,0-1.45-.48-1.47-1.43,0-.4,0-.8,0-1.2q0-34.67,0-69.34c0-.28,0-.56,0-.84,0-1.59.24-1.79,1.82-1.79,5.32,0,10.64,0,16,0a3.07,3.07,0,0,1,2.74,1.31c3.89,5.06,7.86,10.05,11.83,15.05,4.43,5.59,8.89,11.16,13.32,16.75,2.87,3.63,5.7,7.28,8.55,10.93.12.15.25.29.38.43Z"/>
<path class="cls-1" d="M129,39.54q0-17.21,0-34.43c0-.48,0-1,0-1.44,0-1,.45-1.42,1.49-1.42,9,0,17.92-.15,26.87.09A39.53,39.53,0,0,1,184.75,14,33.89,33.89,0,0,1,192,24.8,45.26,45.26,0,0,1,194.31,33a37.39,37.39,0,0,1,.71,6.88,35.37,35.37,0,0,1-1.5,9.89,34.54,34.54,0,0,1-7.24,13.46,37.05,37.05,0,0,1-9.46,8,37.47,37.47,0,0,1-11,4.46,47.19,47.19,0,0,1-9.26,1.12c-8.35.15-16.71.05-25.07.05-2.33,0-2.44-.09-2.44-2.41Q129,57,129,39.54Zm19.67,0q0,9.41,0,18.83c0,1.43.24,1.67,1.67,1.7s2.56,0,3.84,0a22,22,0,0,0,12.69-4,17.08,17.08,0,0,0,6.15-8,24.64,24.64,0,0,0,1.34-10.14A18.82,18.82,0,0,0,171,27.33c-3.77-5.26-9.13-7.81-15.52-8.23-1.59-.11-3.2,0-4.8,0-1.84,0-2,.17-2,2Q148.72,30.28,148.72,39.51Z"/>
<path class="cls-1" d="M449.37,76.86h-8.52c-1.58,0-2-.41-2.51-1.86-.83-2.32-1.77-4.61-2.66-6.91a30.25,30.25,0,0,1-1.13-3c-.26-1-.86-1.21-1.76-1.21-4.6,0-9.2,0-13.8,0-3.36,0-6.72,0-10.08,0A1.67,1.67,0,0,0,407.08,65c-1.24,3.2-2.59,6.35-3.81,9.55-.71,1.87-1.14,2.28-3.09,2.28H383.5c-1.9,0-2-.26-1.38-2,1.46-3.83,2.88-7.67,4.36-11.49s3.13-7.75,4.64-11.64S394,44,395.54,40.13c1.12-2.89,2.35-5.74,3.48-8.63,1.19-3,2.29-6.12,3.47-9.16s2.35-5.82,3.5-8.75c.8-2,1.53-4.1,2.33-6.14a46.07,46.07,0,0,1,1.88-4.37,1.9,1.9,0,0,1,1.43-.79c6.24-.05,12.48,0,18.72,0a2,2,0,0,1,2,1.53c1.18,3.21,2.46,6.38,3.67,9.58s2.27,6.13,3.42,9.18c.81,2.16,1.67,4.3,2.49,6.46s1.59,4.17,2.39,6.25c1.26,3.27,2.53,6.54,3.78,9.81.79,2.08,1.52,4.19,2.31,6.27s1.69,4.3,2.52,6.46,1.65,4.4,2.49,6.6,1.69,4.37,2.53,6.57c.54,1.41,1.1,2.82,1.54,4.27.34,1.12-.05,1.59-1.23,1.6-3,0-5.92,0-8.88,0ZM420.93,26.41c-.23.26-.37.36-.42.49-.7,1.95-1.4,3.89-2.06,5.84-.81,2.4-1.56,4.83-2.38,7.23s-1.72,4.78-2.53,7.18c-.42,1.25-.05,1.7,1.26,1.71q6,0,12,0c1.44,0,1.84-.46,1.4-1.83-.74-2.35-1.59-4.67-2.38-7q-1.28-3.78-2.55-7.57c-.42-1.24-.79-2.5-1.25-3.73C421.73,28,421.33,27.27,420.93,26.41Z"/>
<path class="cls-1" d="M72.06,39.55q0-17.21,0-34.43c0-.48,0-1,0-1.44,0-1,.44-1.43,1.48-1.43q19.85,0,39.7,0c1.48,0,1.79.34,1.79,1.89,0,4.48,0,9,0,13.43,0,1.15-.53,1.47-1.52,1.47H93.65c-1.74,0-1.9.17-1.9,1.94q0,4,0,8c0,1.88.13,2,2.08,2h17.75c2,0,2.12.11,2.12,2.08q0,6.12,0,12.24c0,1.84-.34,2.19-2.16,2.19H93.91c-1.87,0-2.15.29-2.16,2.16q0,4.26,0,8.52c0,1.59.19,1.78,1.81,1.79h20.15c.92,0,1.36.37,1.36,1.38,0,4.52,0,9,0,13.55,0,1.57-.31,1.86-1.94,1.87q-10.08,0-20.15,0H74.25c-2,0-2.18-.13-2.18-2.16Q72.06,57.12,72.06,39.55Z"/>
</svg>