<svg xmlns="http://www.w3.org/2000/svg" viewBox="0 0 460.07 349.92">
<defs><style>.cls-1{fill:#fff;}.cls-2{fill:#81b3d2;}.cls-3{fill:#766357;}</style></defs>	
<path class="cls-1" d="M0,205.44A20.35,20.35,0,0,0,1.81,203c1.85-3.43,3.62-6.9,5.42-10.36a3.48,3.48,0,0,1,.18-.31c1-1.57,1-1.49,2.53-.44a60.67,60.67,0,0,0,7.55,4.76,16.47,16.47,0,0,0,12.12,1.18,7.36,7.36,0,0,0,5.22-5.16c.7-2.39-.64-5.19-3.11-6.67a31.89,31.89,0,0,0-8.07-3.18c-4.52-1.25-9.08-2.54-13.1-5.05a14.43,14.43,0,0,1-6.59-8.62,28.93,28.93,0,0,1,0-15.37A22,22,0,0,1,14.27,140,29.28,29.28,0,0,1,35,136.68a51.76,51.76,0,0,1,6.79,1.38c3.24,1.06,6.37,2.47,9.55,3.72,1,.38,1,1.13.6,1.86-2.31,4.49-4.66,9-7,13.44-.05.1-.17.16-.38.36-.95-.56-1.94-1.11-2.91-1.71a17.83,17.83,0,0,0-10.41-2.93A9.35,9.35,0,0,0,25.3,155a5,5,0,0,0,.37,7.87A24.7,24.7,0,0,0,32.73,166a113.47,113.47,0,0,1,11.8,4.18,19.07,19.07,0,0,1,9.2,8.74,10.19,10.19,0,0,1,1.08,3c.44,2.82,1.16,5.63.58,8.54-.49,2.5-.7,5.06-1.3,7.53a19.5,19.5,0,0,1-7.15,10.76,28.68,28.68,0,0,1-14.55,5.94,43.72,43.72,0,0,1-15.14-.53A52.76,52.76,0,0,1,7,210.78c-2.05-.93-3.95-2.22-5.91-3.34-.34-.2-.7-.37-1.05-.56Q0,206.16,0,205.44Z"/>	
<path class="cls-2" d="M171.12,0c-.07,5.48-.07,11-.21,16.43-.17,6.58-.48,13.16-.7,19.74-.08,2.44-.12,4.88-.08,7.32,0,1.17-.42,1.52-1.55,1.51q-6-.07-12,0c-1.06,0-1.43-.33-1.52-1.43-.32-4-.77-8-1.18-12,0-.18-.13-.34-.5-.54-.25,1.28-.58,2.56-.74,3.85q-.56,4.45-1,8.91A1.17,1.17,0,0,1,150.34,45q-6.24,0-12.48,0c-.87,0-1.27-.44-1.29-1.35-.08-4.51-.21-9-.3-13.54-.14-6.91-.24-13.83-.39-20.74-.06-3.11-.19-6.22-.29-9.33h7.68c.1,1.51.24,3,.28,4.53.15,6.31.25,12.61.39,18.92q.12,5.75.3,11.5a8.6,8.6,0,0,0,.2,1.21,1.31,1.31,0,0,0,.49-.88c.45-3.89.87-7.78,1.33-11.67.32-2.73.69-5.46,1-8.19l2-15.42h7.92q.7,5.1,1.39,10.2c.47,3.43,1,6.86,1.43,10.3.47,3.64.84,7.29,1.34,10.92a13.41,13.41,0,0,0,.86,2.52l.49-.11c.07-.7.21-1.39.21-2.09,0-3.19,0-6.39,0-9.58.07-7.38.17-14.77.26-22.15Z"/>	
<path class="cls-2" d="M299,0c0,2.36,0,4.72,0,7.08q0,18,0,36c0,1.78-.1,1.89-1.9,1.91-1.56,0-3.12,0-4.68,0-1.09,0-1.48-.42-1.47-1.5,0-5,0-10.08,0-15.12,0-.57-.08-1.15-.13-1.72l-.33,0a31.12,31.12,0,0,0-1.27,3.75c-.86,4.15-.82,4.16-5,4.16h-.72c-2.83,0-2.85,0-3.65-2.62-.33-1.06-.55-2.16-.89-3.22a4.1,4.1,0,0,0-.69-1c-.21.38-.59.75-.59,1.13,0,4.6,0,9.2-.05,13.8,0,2.34,0,2.36-2.33,2.36-1.28,0-2.56,0-3.84,0S270,44.56,270,43.43c0-7.64,0-15.28,0-22.92Q270,10.26,270,0h7.92c.67,2.32,1.32,4.65,2,7,1.12,3.77,2.24,7.54,3.42,11.29a9.7,9.7,0,0,0,1.23,1.92c.27-.7.4-1,.49-1.28.77-2.55,1.5-5.11,2.3-7.66.86-2.72,1.79-5.42,2.66-8.14.33-1,.57-2.06.85-3.09Z"/>	
<path class="cls-2" d="M263.76,0a19.48,19.48,0,0,1,1.63,2.14,4.5,4.5,0,0,1,.7,2.09q.06,18.1,0,36.21A4.44,4.44,0,0,1,261.55,45q-5.93.06-11.87,0a4.43,4.43,0,0,1-4.56-4.64c0-11.87,0-23.74,0-35.61A4.5,4.5,0,0,1,246.82,1a3.82,3.82,0,0,0,.62-1Zm-5.62,22.44c0-3.76,0-7.52,0-11.28s.42-3.29-3.35-3.31c-1.68,0-1.83.16-1.83,1.88,0,7.88,0,15.76,0,23.63,0,4.14-.64,3.56,3.74,3.64,1.11,0,1.46-.42,1.45-1.49C258.12,31.16,258.14,26.8,258.14,22.44Z"/>
<path class="cls-2" d="M238.32,0a3.63,3.63,0,0,0,.59.95,4.73,4.73,0,0,1,1.72,3.69c0,2.68.06,5.36,0,8a1.76,1.76,0,0,1-.86,1.36,55.57,55.57,0,0,1-6,1.52c-.89.17-1.07-.71-1.09-1.4,0-1.52,0-3,0-4.56s-.3-1.71-1.67-1.73c-4.42-.06-3.61,0-3.63,3.46,0,8,0,15.92,0,23.87,0,1.62.14,1.76,1.77,1.8.64,0,1.28,0,1.92,0,1.39,0,1.61-.25,1.62-1.61,0-1.8,0-3.6,0-5.4,0-1.61.25-1.77,1.83-2.09s3-.73,4.55-1c1.18-.23,1.64.17,1.64,1.39q0,5.88,0,11.76a4.86,4.86,0,0,1-5.2,5c-3.63-.14-7.28,0-10.92,0a4.54,4.54,0,0,1-4.9-4.73q0-17.76,0-35.51A4.63,4.63,0,0,1,221.35.95,4.12,4.12,0,0,0,222,0Z"/>	
<path class="cls-2" d="M195.36,0c0,2,0,4-.08,6,0,1.62-.28,1.85-1.91,1.85-3.24,0-6.48,0-9.71,0-1.13,0-1.58.37-1.56,1.53.05,2.48,0,5,0,7.44,0,1.46.23,1.68,1.66,1.69,2.32,0,4.64,0,7,0,1.42,0,1.88.46,1.9,1.86s0,2.72,0,4.08-.35,1.71-1.71,1.72c-2.44,0-4.88.05-7.31,0-1.13,0-1.5.47-1.5,1.49,0,2.72,0,5.44,0,8.15,0,1,.48,1.22,1.35,1.21,3.4,0,6.8,0,10.19,0,1.5,0,1.64.15,1.65,1.65,0,1.68,0,3.36,0,5,0,.92-.38,1.3-1.29,1.3q-9.35,0-18.71,0c-1.09,0-1.22-.6-1.21-1.47,0-5.2,0-10.39,0-15.59q0-13.19,0-26.38c0-.52-.06-1-.09-1.55Z"/>	
<path class="cls-2" d="M323.76,0c0,1.92,0,3.84-.07,5.76,0,1.75-.38,2.09-2.14,2.09-3.12,0-6.24,0-9.36,0-1.65,0-1.86.24-1.87,1.87q0,3.36,0,6.72c0,1.68.34,2,2.05,2,2.2,0,4.4,0,6.6,0,1.68,0,2,.38,2,2.06q0,1.92,0,3.84c0,1.47-.25,1.74-1.75,1.75-2.28,0-4.56,0-6.84,0-1.83,0-2.08.26-2.09,2.08q0,3.54,0,7.08c0,1.45.17,1.64,1.66,1.66,3.24,0,6.48,0,9.72,0,1.83,0,2,.17,2,2,0,1.48,0,3,0,4.44,0,1.06-.4,1.56-1.47,1.56H303.77c-.95,0-1.45-.33-1.44-1.42q0-21.48,0-43c0-.2,0-.4.06-.6Z"/>	
<path class="cls-2" d="M206.16,0q0,8.87,0,17.75t0,17.51c0,1.69,0,1.73,1.77,1.73,2.36,0,4.72,0,7.08,0,1.44,0,1.68.26,1.68,1.68,0,1.6,0,3.2,0,4.8,0,1-.4,1.5-1.4,1.5H199.19c-.75,0-1.1-.35-1.08-1.1,0-.4,0-.8,0-1.2q0-20.51,0-41c0-.56-.07-1.11-.1-1.67Z"/>	
<path class="cls-1" d="M317.38,168.35c-.07.73-.19,1.45-.19,2.18q0,20.16,0,40.31c0,2.28,0,2.28-2.22,2.28H299.47c-2,0-2.14-.18-2.14-2.09q0-35.21,0-70.43c0-2.3.14-2.44,2.44-2.45,4.88,0,9.76.13,14.63-.06a5.15,5.15,0,0,1,4.67,2.43c3.48,4.57,7,9.08,10.55,13.61,2.91,3.75,5.79,7.52,8.71,11.25,3.06,3.93,6.16,7.82,9.24,11.74,1.21,1.53,2.38,3.09,3.61,4.61a3.43,3.43,0,0,0,.94.59,4.18,4.18,0,0,0,.49-1,6.51,6.51,0,0,0,0-1.32q0-19.2,0-38.39c0-.56,0-1.12,0-1.68.1-1.47.45-1.81,1.93-1.81,5.36,0,10.72,0,16.08,0,1.22,0,1.67.5,1.68,1.61,0,.48,0,1,0,1.44q0,34.85,0,69.71c0,2.21,0,2.23-2.2,2.23-5.16,0-10.32-.06-15.48,0a3.83,3.83,0,0,1-3.41-1.71c-3.54-4.62-7.14-9.2-10.7-13.8-3.15-4.06-6.28-8.15-9.44-12.2q-5.77-7.41-11.57-14.79c-.61-.78-1.18-1.58-1.77-2.37Z"/>
<path class="cls-1" d="M246.39,135.82a42.87,42.87,0,0,1,31,13.27,37.59,37.59,0,0,1,6,8.48,36,36,0,0,1,3.52,10.63,35,35,0,0,1,.35,7.64A67,67,0,0,1,286,185.2a33.81,33.81,0,0,1-2.21,6.8,36.94,36.94,0,0,1-6.4,10.18,39.27,39.27,0,0,1-11.79,9,38.85,38.85,0,0,1-9.89,3.49c-5.13,1-10.34,1.7-15.59.67a68,68,0,0,1-7.49-1.49,51.75,51.75,0,0,1-8.24-3.45,40.61,40.61,0,0,1-6.23-4.19,33.77,33.77,0,0,1-8.11-9.49,43.63,43.63,0,0,1-5.45-15.7,39.5,39.5,0,0,1,.69-16,35.56,35.56,0,0,1,7.43-14.29A39.67,39.67,0,0,1,224,141.34a61.13,61.13,0,0,1,8.34-3.52A35.37,35.37,0,0,1,246.39,135.82Zm-.76,19c-11.64.25-21,9.18-20.89,19.88.19,13,9.22,22,21.07,21.92,12.46-.07,21-9.7,21-22.16C266.78,163.47,257.08,154.91,245.63,154.8Z"/>
<path class="cls-1" d="M129.28,175.59q0-17.45,0-34.91c0-2.46.07-2.53,2.58-2.53,9.12,0,18.24-.12,27.35.07a35.23,35.23,0,0,1,8.67,1.53,45.57,45.57,0,0,1,7.84,3.12,33.94,33.94,0,0,1,11.37,9.33,36,36,0,0,1,8.21,21.87A37,37,0,0,1,194,185.93a41.5,41.5,0,0,1-3.52,8.32,35.27,35.27,0,0,1-9.84,11.09,54.82,54.82,0,0,1-8.14,4.69c-5.32,2.6-11,3.19-16.9,3.12-7.92-.1-15.83,0-23.75,0a3.94,3.94,0,0,1-1.54-.1,2.33,2.33,0,0,1-1-1.1,3,3,0,0,1,0-1.18Q129.28,193.16,129.28,175.59Zm19.82-.07q0,9.6,0,19.2c0,1,.17,1.74,1.41,1.76,4.78.08,9.48-.18,13.9-2.35a17.53,17.53,0,0,0,9.48-11.26,23.17,23.17,0,0,0,.65-11.37c-.73-3.41-1.76-6.66-4-9.36-4-4.77-9.22-6.92-15.33-7.16-1.52-.06-3,0-4.56,0s-1.55.09-1.55,1.59Q149.09,166,149.1,175.52Z"/>
<path class="cls-1" d="M460.07,213c-.69,0-1.27.11-1.86.11H441.53c-2.14,0-2.38-.19-3.1-2.19q-1.67-4.66-3.38-9.31a2.07,2.07,0,0,0-2.18-1.5q-11.64,0-23.28,0a2.29,2.29,0,0,0-2.38,1.75c-.82,2.2-1.76,4.35-2.63,6.52a26.92,26.92,0,0,0-1.25,3.35,1.6,1.6,0,0,1-1.79,1.36H383.67c-1.51,0-1.79-.54-1.23-2,1.31-3.29,2.57-6.6,3.85-9.9,1.19-3,2.4-6.07,3.57-9.11.82-2.12,1.58-4.26,2.39-6.38s1.65-4.14,2.46-6.21,1.68-4.47,2.54-6.7,1.63-4.15,2.43-6.22c.87-2.26,1.72-4.54,2.58-6.8.77-2,1.53-4,2.32-6,.48-1.22,1-2.42,1.49-3.65,1.41-3.67,2.76-7.37,4.25-11a2.16,2.16,0,0,1,1.57-1,39.15,39.15,0,0,1,4.07-.06h13.92c2.1,0,2.59.45,3.28,2.48.84,2.44,1.81,4.84,2.71,7.26.82,2.2,1.59,4.42,2.42,6.62s1.61,4.16,2.4,6.24c1.23,3.28,2.43,6.57,3.66,9.84.8,2.12,1.65,4.22,2.46,6.33s1.6,4.25,2.39,6.37c.88,2.35,1.77,4.69,2.65,7,1.17,3.13,2.32,6.27,3.49,9.4.8,2.12,1.6,4.24,2.43,6.35.73,1.85,1.51,3.67,2.22,5.52A5,5,0,0,1,460.07,213Zm-38.81-27.9H422c1.88,0,3.75,0,5.63,0,.65,0,1.51,0,1.15-1.13q-1.38-4.26-2.79-8.51c-1.27-3.81-2.54-7.63-3.84-11.43a3.71,3.71,0,0,0-.73-.94c-.33.31-.82.56-1,.94-.75,2-1.43,4.12-2.12,6.2-1.46,4.42-2.9,8.85-4.35,13.27-.43,1.29-.24,1.6,1.18,1.62C417.19,185.13,419.22,185.11,421.26,185.11Z"/>
<path class="cls-1" d="M72.24,175.77q0-17.58,0-35.15c0-2.31.16-2.47,2.43-2.47H113.3c1.73,0,1.93.19,1.94,1.92q0,6.66,0,13.32c0,1.43-.14,1.58-1.59,1.58H93.86c-1.73,0-1.77,0-1.77,1.73,0,3,0,5.92,0,8.88,0,1.14.41,1.55,1.55,1.54,6.2,0,12.4,0,18.59,0,1.69,0,1.85.15,1.86,1.84q0,6.72,0,13.44c0,1.47-.1,1.57-1.56,1.57H93.92c-1.81,0-1.83,0-1.83,1.79q0,4.32,0,8.64c0,2,.12,2.08,2.13,2.08H113.3c1.7,0,1.94.24,1.95,1.94q0,6.48,0,13c0,1.54-.19,1.73-1.73,1.73H74.28c-1.87,0-2-.2-2-2.07Q72.24,193.41,72.24,175.77Z"/>
<path class="cls-1" d="M163.72,325.6l-5.22,9.06s-.06.06-.07.1c-.25.75-1.14,1.61-.2,2.21.43.28,1.56-.06,2.1-.48a29.59,29.59,0,0,0,8.73-10.32c.68-1.39,1.49-2.73,2.3-4.05.7-1.15,2.71-1.4,4.38-.72a2.11,2.11,0,0,0,1.52,0c1.71-.8,3.47-.74,4.45.3a3.85,3.85,0,0,1,.08,4.39c-1.78,3.11-3.59,6.2-5.34,9.33a4,4,0,0,0-.17,1.45c.48,0,1.08.29,1.4.09a25,25,0,0,0,3.35-2.42,32.4,32.4,0,0,0,7.24-10c.33-.64.71-1.24,1.09-1.85a3.14,3.14,0,0,1,3.9-1.63c1,.21.71.87.42,1.38-1.36,2.44-2.77,4.84-4.16,7.26-1,1.8-2.09,3.58-3.05,5.42-.18.35,0,.89,0,1.34a3.87,3.87,0,0,0,1.21-.22,16,16,0,0,0,6.44-6.87c1.29-2.5,2.76-4.92,4.18-7.36a3.37,3.37,0,0,1,3.71-.8,1,1,0,0,1,.23.89,32.48,32.48,0,0,1-1.58,3.07c-2.11,3.61-4.26,7.19-6.37,10.8a12.31,12.31,0,0,0-.65,1.73c.61-.15,1.09-.13,1.33-.36,2.49-2.35,5.11-4.6,7.35-7.17,1.54-1.78,2.46-4.08,3.79-6.06a7.48,7.48,0,0,1,6.71-3.43c3.4,0,5.24,3.92,3.82,6.73-.94,1.84-2,3.63-3,5.45a4,4,0,0,0-.24,1c.32.06.69.25,1,.15a10.16,10.16,0,0,0,5.6-4.4c1.46-2.46,2.82-5,4.25-7.46.62-1.07,2.39-1.51,3.91-.9a2.94,2.94,0,0,0,2.47,0,5.94,5.94,0,0,1,3-.19,2,2,0,0,1,1.56,1.9c.28,1.89-.55,3.41-1.46,4.93-1.5,2.53-3,5.06-4.43,7.63a1.75,1.75,0,0,0,0,1.42c.1.2,1,.3,1.23.1,1.52-1.12,3-2.33,4.44-3.55.45-.38.74-1,1.24-1.26a4.46,4.46,0,0,1,1.73,0c-.05.54.1,1.29-.2,1.6a55.06,55.06,0,0,1-4.89,4.56,7,7,0,0,1-4.52,1.65c-3.49,0-3.89-3.14-2.82-5.18,1.61-3.06,3.41-6,5.12-9a1.62,1.62,0,0,0,.26-.66c0-.3,0-.79-.14-.87a1.07,1.07,0,0,0-1,.06,31.64,31.64,0,0,0-4.6,4.1,58.85,58.85,0,0,0-4.07,6.43c-.78,1.29-1.48,2.64-2.26,3.93a3.31,3.31,0,0,1-3.7.78,1.14,1.14,0,0,1-.24-1,19.62,19.62,0,0,1,.94-2.12c-.1-.12-.17-.24-.2-.23-1.72.45-3.67.1-5.13,1.41a8.31,8.31,0,0,1-6.26,2.49A4.08,4.08,0,0,1,200.7,338c-.91-1.57-.87-1.46-2.45-.37a47,47,0,0,1-5.81,3.48,7.34,7.34,0,0,0-3.14,3.47,13.3,13.3,0,0,1-4,5,1.88,1.88,0,0,1-.84.32c-.56.05-1.12,0-1.68,0-2.11,0-2.44-.2-3.15-2a3.54,3.54,0,0,1,.94-3.86,12.49,12.49,0,0,1,5.63-3.23,5,5,0,0,0,1.53-.88c.18-.14.16-.53.23-.81a3,3,0,0,0-.87,0,9.75,9.75,0,0,1-1.49.66c-2.43.39-3,0-4-2.35-1.2.66-2.4,1.29-3.58,2a4.74,4.74,0,0,1-5.21-.53,3.09,3.09,0,0,1-.41-3.58,39,39,0,0,1,2.07-3.9c1.09-1.9,2.25-3.76,3.3-5.68.21-.38,0-1,0-1.46a3.56,3.56,0,0,0-1.29.21,18.75,18.75,0,0,0-6.39,7c-1.39,2.42-2.77,4.85-4.18,7.26-.66,1.12-2.84,1.49-4.23.64a1.61,1.61,0,0,0-2,0,4.64,4.64,0,0,1-5.73-.88c-.45-.52-.73-.31-1.21-.07-1.52.77-3,1.71-4.82,1.52a3,3,0,0,1-2.83-2.32c-.29-.94-.68-1-1.44-.42a12.48,12.48,0,0,1-9.88,2.6,4.86,4.86,0,0,1-3.76-3.58,8.9,8.9,0,0,1,1.32-6.65c.5-.81.59-1.29-.3-2-3.42-2.6-4.31-6.2-2.92-10.14a10.91,10.91,0,0,1,2.22-3.21,1.47,1.47,0,0,1,1.44-.14,1.71,1.71,0,0,1,.39,2.43,9.68,9.68,0,0,0-1.43,2.56,5.29,5.29,0,0,0,1.41,5.51c.91.94,1.42.91,2.1-.21,1.63-2.68,3.19-5.41,4.77-8.12,1.27-2.17,2.71-4.1,5.35-4.8a5.13,5.13,0,0,1,6.55,4.23,9.66,9.66,0,0,1-1.32,6.21,14.16,14.16,0,0,1-6.89,6.53,14.49,14.49,0,0,1-5.11,1.11c-1.51,0-2.63.28-3.08,1.76a10.92,10.92,0,0,0-.77,3.89c.14,1.66,2.08,2.37,4.08,2,3.25-.62,5.51-2.74,7.82-4.84.43-.39,1-.61,1.43-1A18.67,18.67,0,0,0,149,329c1.1-1.71,2-3.57,3.22-5.16a6.93,6.93,0,0,1,5.38-2.94,4.15,4.15,0,0,1,3.87,2.1A25.33,25.33,0,0,0,163.72,325.6Zm-26.29,1a8,8,0,0,0,2.23,0,12.06,12.06,0,0,0,5-3.1,12.89,12.89,0,0,0,3.16-5.81,2.25,2.25,0,0,0-1.1-2.57,1.88,1.88,0,0,0-2.48.57,39.62,39.62,0,0,0-2.69,3.76C140.2,321.72,138.92,324,137.43,326.64Zm66.6,8.53c-.07,1.55.41,2,1.49,1.94a2.61,2.61,0,0,0,2.46-2.66c0-.74.26-1.92.72-2.1,1.63-.64,2.33-2,3.07-3.33a22.5,22.5,0,0,0,1.64-3.55,1.37,1.37,0,0,0-2.08-1.58,7,7,0,0,0-2,2c-1.39,2.17-2.67,4.41-4,6.65C204.79,333.48,204.34,334.53,204,335.16Zm-45-9.23a1.47,1.47,0,0,0-2.16-1.5,6.26,6.26,0,0,0-2.75,2.89q-2.31,4-4.52,8a5.55,5.55,0,0,0-.32,1.62,7.61,7.61,0,0,0,1.66.1,2.19,2.19,0,0,0,1.13-.62,21.57,21.57,0,0,0,2.81-3.06c1.43-2.15,2.67-4.42,4-6.65A2.37,2.37,0,0,0,159.08,325.93Zm23.76,19.72.65,1.07c.52-.58,1.08-1.14,1.55-1.76.1-.14-.11-.52-.19-.78a.25.25,0,0,0-.22,0C184,344.64,183.47,345.12,182.84,345.65Z"/>
<path class="cls-1" d="M301.44,289.38c-1.14,1.45-2.25,2.74-3.22,4.13-2.59,3.71-5.24,7.34-9.15,9.8a11.39,11.39,0,0,1-2.7,1.5,6.8,6.8,0,0,0-4.21,3.94,22.9,22.9,0,0,1-1.9,3,4.93,4.93,0,0,1-4.17,2.17c-2,0-3-.53-3.59-2.16s.26-2.74,1.2-3.78a12.42,12.42,0,0,1,5.29-3.1c.29-.1.57-.24.85-.36v-.34c-.58-.06-1.15-.1-1.72-.19a12.61,12.61,0,0,1-3.1-.59c-1.59-.7-2.06-2.15-2.09-3.86a10.07,10.07,0,0,1,1.69-5.76c.52-.82.67-1.41-.25-2.13a8.41,8.41,0,0,1-3.45-7.71,8.79,8.79,0,0,1,2.65-5.59c.41-.44,1-.74,1.57-.16,1,.94,1.17,1.66.38,2.46a5.59,5.59,0,0,0-1.52,5.39c.32,1.59,1.37,2.55,2.75,3.63.73-1.08,1.48-2.08,2.12-3.15q2.15-3.58,4.2-7.22a7.3,7.3,0,0,1,9.64-3.31,4.14,4.14,0,0,1,2.57,3.24,10.85,10.85,0,0,1-2.52,8.69,13.66,13.66,0,0,1-6.14,4.58,27.2,27.2,0,0,1-6.31,1.12c-1,.1-1.76.26-2.16,1.27s-1,2.25-1.4,3.42c-.65,2,.75,3.4,2.82,3s3.19-1.74,4.4-3.13a14.29,14.29,0,0,0,1.3-2,3.51,3.51,0,0,1,4.2-1.29c.63.31.44.68.15,1.16a49.57,49.57,0,0,0-3,5.78,3.58,3.58,0,0,0,1.3-.34,24.12,24.12,0,0,0,6.48-6.78,49.44,49.44,0,0,1,4.31-5.72,2.76,2.76,0,0,0,.63-3,4.2,4.2,0,0,1,.75-4.49.82.82,0,0,1,1.33-.14A2.75,2.75,0,0,1,302.6,284c-.08.61.47,1.36.87,2,.64,1,1.43,1.82,2.09,2.76a3.27,3.27,0,0,1,.09,3.72c-1.37,2.43-2.75,4.85-4.08,7.3a1.33,1.33,0,0,0-.05,1.17,1.21,1.21,0,0,0,1.16.21,23.56,23.56,0,0,0,3.5-2.43,25.88,25.88,0,0,0,5.08-6.88c1.07-1.89,2-3.92,3.83-5.29a6.53,6.53,0,0,1,5.23-1.52,3.52,3.52,0,0,1,2.83,2.31c.26.73.52,1.27,1.36,1.48s.77.86.4,1.5c-1.75,3-3.51,6.06-5.21,9.12a4.71,4.71,0,0,0-.26,1.53c.56,0,1.29.27,1.64,0,1.43-1.06,2.74-2.29,4.11-3.43,3.24-2.71,4.84-6.54,7-10,.39-.65.77-1.31,1.22-1.91s2.8-.61,3.73-.16a2.71,2.71,0,0,0,1.5.09c.81-.13,1.59-.45,2.41-.56a2.83,2.83,0,0,1,2.72,4.31c-1.29,2.38-2.62,4.73-3.93,7.09-.64,1.15-1.29,2.29-1.88,3.46-.15.3-.25.9-.1,1a1.43,1.43,0,0,0,1.18.27,10.55,10.55,0,0,0,2.63-1.59,29.39,29.39,0,0,0,6.71-8.47c1.15-2.28,2.62-4.39,5.11-5.51a4.76,4.76,0,0,1,4.88.09c.8.52,1.43.65,2-.46,1.22-2.32,2.6-4.56,3.91-6.83a3.29,3.29,0,0,1,3.84-1,1,1,0,0,1,.26.89,23.43,23.43,0,0,1-1.37,2.77c-1.82,3.13-3.69,6.23-5.51,9.36s-3.48,6-5.14,9c-.24.44-.09,1.11-.11,1.67.51,0,1.17.2,1.5,0,1.52-1.14,3-2.39,4.4-3.63.42-.36.69-1,1.16-1.18a1.64,1.64,0,0,1,1.48.13,1.46,1.46,0,0,1,0,1.45c-2.13,2.2-4.15,4.53-7,5.86a4.88,4.88,0,0,1-5.4-.86c-.49-.47-.79-.58-1.4-.16a7,7,0,0,1-4.34,1.48,3.14,3.14,0,0,1-2.69-1.26c-.91-1.3-1.26-1.28-2.52-.35a7,7,0,0,1-4.88,1.58,2.87,2.87,0,0,1-2.65-3.9c1.12-2.54,2.51-5,3.81-7.42.5-1,1.12-1.84,1.54-2.82.17-.39-.07-1-.12-1.43a4.53,4.53,0,0,0-1.18.3,16.61,16.61,0,0,0-5.73,6c-1.68,2.7-3.2,5.49-4.86,8.2-.6,1-3.14,1.36-4,.55s-1.14-.34-1.81-.16a16.07,16.07,0,0,1-3.69.63,3.62,3.62,0,0,1-1.84-.91c-.67-.48-1.16-.94-2.08-.29a6.6,6.6,0,0,1-4.39,1.29,2.68,2.68,0,0,1-2.37-1.36c-.56-1-1.22-.78-2-.28A8,8,0,0,1,301,304a3.25,3.25,0,0,1-3.18-1.51,3.2,3.2,0,0,1,0-3.41c1.33-2.36,2.68-4.7,4-7.06A1.93,1.93,0,0,0,301.44,289.38Zm-12.19-10.61c-.58.3-1.32.47-1.7.93a39.35,39.35,0,0,0-2.81,4c-1.18,1.89-2.29,3.82-3.39,5.76-.18.31-.32.94-.17,1.08a1.57,1.57,0,0,0,1.18.27,16.14,16.14,0,0,0,2.41-.68,10.53,10.53,0,0,0,7-7.8A3,3,0,0,0,289.25,278.77Zm68,11.12a1.45,1.45,0,0,0-2.08-1.49,6.5,6.5,0,0,0-2.89,3.07q-2.31,4-4.5,8a5,5,0,0,0-.28,1.5c.53,0,1.2.29,1.55.06a12.08,12.08,0,0,0,3.17-2.62c1.72-2.37,3.19-4.93,4.73-7.43A3.53,3.53,0,0,0,357.24,289.89Zm-36.67.27c0-1.59-1.16-2.37-2.12-1.68a12.19,12.19,0,0,0-2.32,2.3,17.87,17.87,0,0,0-1.47,2.44c-1.23,2.17-2.46,4.35-3.65,6.54-.17.31-.2,1,0,1.12a1.41,1.41,0,0,0,1.25.21,9.14,9.14,0,0,0,2.76-2,68.22,68.22,0,0,0,4-5.91C319.66,292.15,320.15,291,320.57,290.16ZM278.4,308.7a8.51,8.51,0,0,0-.8-.54,21.38,21.38,0,0,0-1.52,1.95,4.62,4.62,0,0,0,.64.6s.08,0,.1,0Z"/>
<path class="cls-3" d="M248.41,65.25c-.75.87-1.5,1.75-2.26,2.62a36.13,36.13,0,0,1-4.09,4.46c-1.08.87-2.67,1.11-4,1.64-.71.28-1.42.57-2.1.92a18.2,18.2,0,0,1-3.67,1.86c-2.08.49-3.57-.69-4.58-2.62-.83.64-1.54,1.28-2.33,1.78a13.89,13.89,0,0,1-2.73,1.46c-1.91.68-2.58,2.38-3.48,3.91a5.53,5.53,0,0,1-3,2.91c-1.67.51-3.33.2-3.85-.73a3.51,3.51,0,0,1,1.32-4.32c.87-.61,1.81-1.11,2.87-1.74a11.79,11.79,0,0,0-1.06-.95,3.07,3.07,0,0,1-1.1-4.1c1.51-2.66,3-5.31,4.69-7.88a6.08,6.08,0,0,1,3.74-2.8,3.69,3.69,0,0,1,4,1.38c.46.56,1,1,1.75,1.76-1.2,3.31-3.81,6.25-5.28,9.82.29.07.43.15.5.11a18.77,18.77,0,0,0,6.35-6.52c1.18-2,2-4.36,4-5.71,2.36-1.57,4.49-1.91,6.36.12,1,1.07,1,3.37.16,4.85s-1.51,2.68-2.27,4l.17.38c.55-.14,1.28-.09,1.62-.44,1.68-1.68,3.26-3.47,4.87-5.22.27-.29.46-.65.71-1,.82-1,1.5-2,.7-3.4-.59-1.06.08-2.1.81-2.94.47-.55,1.9-.09,1.84.67-.14,2,1.34,3.14,2.32,4.52a3.17,3.17,0,0,1,.1,3.79c-1,1.68-1.93,3.4-2.86,5.11-.13.25-.24.73-.12.84a1.07,1.07,0,0,0,.93.26A15.16,15.16,0,0,0,252,72.44c2.3-2,3.56-4.67,5.05-7.2a6.88,6.88,0,0,1,4.4-3.58,3.41,3.41,0,0,1,3.89,1.52,2.46,2.46,0,0,0,1,.84c1,.44.9,1.14.48,1.87-1.4,2.41-2.85,4.78-4.24,7.19a6.68,6.68,0,0,0-.44,1.39l.35.27c.87-.7,1.75-1.37,2.6-2.09,2.32-2,3.75-4.58,5.24-7.19,1-1.8,2.36-3.4,4.66-3.8,1.5-.26,3-.29,4,.9s.5,2.86-.19,4.18a6.86,6.86,0,0,1-3.74,3.71,14.47,14.47,0,0,1-3.37.54c-1.29.11-1.59.36-1.7,1.64a1.47,1.47,0,0,0,1.52,1.75c1.8.18,3.2-.73,4.56-1.76,2.4-1.81,3.79-4.33,5.21-6.88,1-1.77,2.16-3.43,4.31-4.1,1.82-.56,3.56-.36,4.55.77,1.22,1.39,1.34,2.91.36,4.76-.61,1.16-1.27,2.3-1.85,3.47a4.23,4.23,0,0,0-.21,1.16,3.2,3.2,0,0,0,1.23-.11A9.2,9.2,0,0,0,293.12,68q1.53-2.7,3.1-5.39a2.45,2.45,0,0,1,2.91-.48,1.2,1.2,0,0,1,.07,1.11c-.82,1.54-1.73,3-2.59,4.56-1.05,1.86-2.08,3.73-3.2,5.73,1.36.45,2-.45,2.8-.94,1.94-1.24,2.84-3.29,3.95-5.18.94-1.61,1.88-3.24,2.87-4.82.43-.7,2.22-1.05,2.78-.53a1.29,1.29,0,0,1,.12,1.21c-1.43,2.58-2.93,5.12-4.41,7.67a12.41,12.41,0,0,0-1,1.78,5.09,5.09,0,0,0-.12,1.42c.45,0,1,.08,1.32-.15a16.55,16.55,0,0,0,3.07-2.63c2.54-3.12,5-6.34,7.4-9.54a1,1,0,0,1,1.54-.34c.67.45,1.58.68,1.22,2-.68,2.41-1.17,4.87-1.68,7.32a3.73,3.73,0,0,0,.23,1.32,6.84,6.84,0,0,0,1.24-.56c.38-.27.63-.76,1-1a3.68,3.68,0,0,1,1.24-.21c0,.49.18,1.16-.06,1.43a16.1,16.1,0,0,1-6.23,4.49c-2.53.93-4.52.58-6-1.75-1.39.7-2.67,1.4-4,2a2.61,2.61,0,0,1-3.49-.92c-.58-1.19-1.15-.72-1.87-.31a19.13,19.13,0,0,1-2.31,1.23,2,2,0,0,1-3-1.64c-.17-.77-.49-1-1.3-1a5,5,0,0,0-3.59,1.51,5,5,0,0,1-6.27.61,1.59,1.59,0,0,1-.68-.78c-.27-1.08-.77-1.07-1.64-.59-1.18.65-2.46,1.11-3.66,1.74a4.72,4.72,0,0,1-5.73-1.63c-.39-.66-.74-.61-1.35-.23-2,1.22-4,2.29-5.9,3.6a7.67,7.67,0,0,0-1.66,2.25c-.43.67-.79,1.38-1.19,2.07a4.69,4.69,0,0,1-4.21,2,2.39,2.39,0,0,1-2.08-1.56,2.83,2.83,0,0,1,.69-3A13.76,13.76,0,0,1,254.08,78a8.07,8.07,0,0,1,1.24-.53c-1-.84-1.87-1.6-2.8-2.24a1.44,1.44,0,0,0-1.13.05c-.77.32-1.48.77-2.23,1.11a3.19,3.19,0,0,1-3.62-.7,3.6,3.6,0,0,1,0-3.32c1-1.83,2.12-3.65,3.12-5.51a4.48,4.48,0,0,0,.24-1.39Zm-30.77,9.39a15.31,15.31,0,0,0,2-1.24c2.35-2.08,3.62-4.91,5-7.61a1.22,1.22,0,0,0-.23-1.16,1.41,1.41,0,0,0-1.27-.18,4.61,4.61,0,0,0-1.71,1.44c-1.46,2.36-2.84,4.77-4.17,7.21C217.18,73.39,217.5,73.95,217.64,74.64Zm69.13-10.87a8.54,8.54,0,0,0-1.63,1.52c-1.07,1.58-2,3.25-3,4.9a15.31,15.31,0,0,0-1.28,2.67c-.32,1,.33,1.5,1.32,1.3s1.31-1,1.51-1.9c.15-.7.4-1.75.89-1.95A4.54,4.54,0,0,0,286.78,68a15.76,15.76,0,0,0,1.4-3C288.4,64.36,288,63.78,286.77,63.77Zm-23.25,1.74c-.32-.47-.49-1-.85-1.18a1.59,1.59,0,0,0-1.22.18,2.72,2.72,0,0,0-1.07.94c-1.43,2.39-2.82,4.8-4.17,7.23-.19.35,0,.88-.06,1.32a8.81,8.81,0,0,0,1.43-.05,1.24,1.24,0,0,0,.64-.5c1.31-1.78,2.64-3.56,3.9-5.38A27.12,27.12,0,0,0,263.52,65.51Zm-31.73,8.68A2,2,0,0,0,234,72.37a3.33,3.33,0,0,1,.88-2.06c1.93-1.28,2.71-3.22,3.41-5.23.28-.81-.25-1.48-1-1.31a2.23,2.23,0,0,0-1.29.75c-1.66,2.56-3.24,5.16-4.83,7.76a2,2,0,0,0-.18.81C231,73.86,231.37,74.18,231.79,74.19ZM311,67.89l-.53-.18c-.71.79-1.44,1.56-2.14,2.36s-1.36,1.63-2,2.43c1.53,1.74,2.72,2,3.37.48A31.31,31.31,0,0,0,311,67.89Zm-34.53-3c-.08-.13-.2-.6-.43-.66a1.38,1.38,0,0,0-1.18.16,32.11,32.11,0,0,0-2.63,3.64c-.4.66.17,1.12,1.07,1C274.6,68.8,276.48,66.5,276.5,64.94ZM253.71,81.87c.46-.5.86-.93,1.23-1.37,0,0-.24-.23-.37-.35l-1.1,1.32A3.3,3.3,0,0,0,253.71,81.87Z"/>
<path class="cls-1" d="M125.88,300.4c-2,1.08-3.82,2.1-5.68,3.06-2.2,1.13-5.83.63-7.39-1a4.53,4.53,0,0,1-1.16-3.63,8.3,8.3,0,0,1,1.57-3.89c1.29-2.15,2.42-4.42,3.89-6.44,2.25-3.08,4.31-4,8-3.52a3.51,3.51,0,0,1,2.64,4.2c-1.17,3.34-3,6.22-6.57,7.42a12.32,12.32,0,0,1-3.56.28c-1.28,0-2,.63-2.24,2.22a2,2,0,0,0,1.49,2,4.66,4.66,0,0,0,4.14-.6,23.21,23.21,0,0,0,9.14-9.64c1.16-2.32,2.64-4.43,5.19-5.56,1.63-.72,4.71-.56,6,.56s1.15,5-.48,5.88a4.65,4.65,0,0,1-2.32.14c-.16,0-.39-.62-.38-.95s.39-.64.41-1c0-.58.1-1.43-.22-1.67a1.78,1.78,0,0,0-1.71,0,10.36,10.36,0,0,0-2.32,2.55,77.54,77.54,0,0,0-3.84,6.86c-.37.76-.52,2.28-.08,2.65a3.75,3.75,0,0,0,3,.77,20.13,20.13,0,0,0,5-2.61,22.53,22.53,0,0,0,4.11-3.61,18.45,18.45,0,0,0,2.38-3.84c1.23-2.38,2.7-4.48,5.22-5.69,2-.93,4.79-.83,6.16,1.59a18.79,18.79,0,0,0,2.14,2.56c-.85,1.55-1.79,3.29-2.75,5s-2,3.45-2.9,5.2c-.15.29-.23.9-.08,1a1.41,1.41,0,0,0,1.18.25,12.6,12.6,0,0,0,2.72-1.69,31.3,31.3,0,0,0,7.47-9.81,41.29,41.29,0,0,1,2.12-3.6c.52-.83,2.88-1.35,3.6-.7a1.72,1.72,0,0,1,.06,1.56c-.68,1.39-1.52,2.71-2.3,4.05q-2.21,3.83-4.4,7.67a2.41,2.41,0,0,0-.36,1c0,.69.3,1.16,1,.77a12.33,12.33,0,0,0,5.31-4.64c1.82-3.26,3.71-6.48,5.65-9.68a3.55,3.55,0,0,1,3.66-.81,1.15,1.15,0,0,1,.19,1.09c-.56,1.19-1.22,2.33-1.87,3.47-1.59,2.8-3.19,5.59-4.78,8.38a13.86,13.86,0,0,0-1,1.77c-.34.87.27,1.58,1.06,1.16a12.84,12.84,0,0,0,3.77-2.61c2.85-3.32,5.49-6.82,8.2-10.26.71-.91,1.35-1.88,2-2.8a1.88,1.88,0,0,1,2.58-.23,1.5,1.5,0,0,1,.74,2.15,27.34,27.34,0,0,0-1.32,5c-.37,1.8-.64,3.62-.89,5.44a3.13,3.13,0,0,0,.26,1.08,5.94,5.94,0,0,0,.89-.47c2.57-2,4.09-4.74,5.7-7.45a20.19,20.19,0,0,1,3.16-4.27,7.12,7.12,0,0,1,6.27-1.63c2.18.34,3.38,3,2.31,5.37-1.18,2.58-2.72,5-5.55,6a12.81,12.81,0,0,1-3.85.56c-1.87.06-2.51.63-2.48,2.53,0,1.3,1,2.07,2.59,2a8.16,8.16,0,0,0,4.69-1.9c1.23-1,2.45-2,3.6-3.15.61-.59,1.29-.74,1.75-.15a1.72,1.72,0,0,1-.11,1.64,18.19,18.19,0,0,1-8.31,5.82c-2.16.69-4.54.89-6.52-.73a16.71,16.71,0,0,1-2-2.47,11.65,11.65,0,0,1-1.45,1,35.65,35.65,0,0,1-5.51,2.46,4.64,4.64,0,0,1-5.92-2.67c-1.31.76-2.53,1.49-3.77,2.19a4.26,4.26,0,0,1-6.05-1.42,1.13,1.13,0,0,0-1.06-.16c-.85.42-1.63,1-2.44,1.49-2.12,1.31-3.8,1-5.25-1-.64-.89-1.16-.41-1.69,0-1.38,1-2.84,1.9-4.6,1.68a4.59,4.59,0,0,1-2.53-1,1.39,1.39,0,0,0-2.06-.19,6.47,6.47,0,0,1-4.76,1.19,2.84,2.84,0,0,1-2.37-2.06c-.36-1.09-.51-1.13-1.47-.47-2.44,1.68-5,2.91-8.13,2.54a4.66,4.66,0,0,1-3.94-2.49A8.67,8.67,0,0,0,125.88,300.4Zm28.23-10.63a7.33,7.33,0,0,0-.54-1c-.85-1.13-2.56-.33-3.39.89-1.44,2.1-2.65,4.34-4,6.53-.63,1.06-1.29,2.11-1.82,3.21a2.14,2.14,0,0,0-.08,1.54c.08.2,1,.33,1.31.13a14.07,14.07,0,0,0,3.36-2.75c1.52-2,2.75-4.27,4.07-6.44C153.45,291.24,153.73,290.54,154.11,289.76Zm24.35,9.61a7.87,7.87,0,0,0,1.88,1.23,2.21,2.21,0,0,0,1.8-.23c2.06-1.86,2-4.45,2.11-6.93,0-.17-.25-.5-.39-.5a1,1,0,0,0-.68.32C181.6,295.27,180,297.32,178.46,299.37ZM124.2,289.15c-.11-.23-.23-.89-.53-1a2.11,2.11,0,0,0-1.54.21c-2,1.16-2.67,3.31-3.76,5.14-.46.77.16,1.39,1.11,1.21C122,294.24,123.84,291.38,124.2,289.15Zm72.34,5.54a8.29,8.29,0,0,0,2-.21,6.55,6.55,0,0,0,3.93-4.76,1.67,1.67,0,0,0-.42-1.45,1.62,1.62,0,0,0-1.49.09C198.47,289.82,197.47,292,196.54,294.69Z"/>
<path class="cls-1" d="M323,335.74c1.59-.25,3-.51,3.84.9a2.84,2.84,0,0,1,.24,1.72c-.17,1.16-1.54,1.82-3,1.53s-1.81-1.59-1.31-3.86c-.52.22-.93.36-1.31.56a42.26,42.26,0,0,1-5,2.75c-3.17,1.22-6.06,1.09-7.58-2.15,0-.06-.13-.09-.24-.16-1.25.78-2.49,1.63-3.8,2.36a5.31,5.31,0,0,1-4.64.27c-1.5-.61-1.69-2.19-1.91-3.63l-.29-1.9-.38-.07c-.48.74-1,1.47-1.43,2.23s-.81,1.55-1.26,2.31c-.73,1.25-2.37,1.55-4.22.86l-.2-1.43a11.92,11.92,0,0,0-1.5.56,10.08,10.08,0,0,1-7.5,1.12,5.24,5.24,0,0,1-2.38-1.86c-1-1.26-1.15-1.31-2.43-.41-1.88,1.32-3.7,2.81-6.27,2.52a2.63,2.63,0,0,1-2.43-1.64c-.42-1.11-1.09-.86-1.8-.44s-1.6,1-2.41,1.55a3.33,3.33,0,0,1-4.65-.82c-.42-.54-.73-.54-1.29-.23a11.34,11.34,0,0,1-5.44,1.62,4.25,4.25,0,0,1-3.54-1.39c-.66-.78-1.29-1-2.09,0s-1.23,1-2.46-.37l3.87-5.06c3-3.86,5.9-7.74,8.9-11.56.36-.46,1.19-1,1.63-.84a6.77,6.77,0,0,1,2.12,1.4c.1.08.06.47,0,.66a25.06,25.06,0,0,0-1.9,8.23,21,21,0,0,1-.53,2.45,7.33,7.33,0,0,0,0,1.23,4,4,0,0,0,2.55-2.33c2.06-3.45,4-6.93,6.07-10.4.49-.85,2.87-1.44,3.6-.82a1.44,1.44,0,0,1,.16,1.36c-1.67,3-3.42,6-5.15,9-.69,1.21-1.4,2.42-2,3.65a3.91,3.91,0,0,0-.21,1.12l.27.32c.81-.4,1.64-.77,2.42-1.21,3.14-1.76,4.5-4.93,6.15-7.87,1-1.84,2.06-3.68,3.14-5.49.71-1.18,2.52-1.46,4.33-.57-.66,1.29-1.29,2.59-2,3.86-1.93,3.47-3.9,6.92-5.82,10.4-.15.27-.26.84-.14.92.32.23.88.48,1.15.34a14.06,14.06,0,0,0,2.92-1.81,35.63,35.63,0,0,0,7.4-9.74c1.65-2.91,4-4.92,7.74-4.67a3.43,3.43,0,0,1,3.22,1.84,4.4,4.4,0,0,1-.65,4.73c-.69.94-1.82.71-2.79.49-.63-.14-.59-.66-.24-1.14.62-.83,1-1.85.14-2.57s-1.88-.13-2.5.68a46.67,46.67,0,0,0-2.82,4.12c-1,1.63-1.83,3.35-2.74,5-.81,1.5-.26,3,1.43,3.13a6.88,6.88,0,0,0,3.79-.67,39.35,39.35,0,0,0,4.54-3.45,24.09,24.09,0,0,0,2.1-1.48,8.8,8.8,0,0,0,1.49-2c2.47-4.27,4.9-8.57,7.34-12.86.37-.66.74-1.32,1.12-2a3.2,3.2,0,0,1,3.92-1.66c1,.21.81.88.48,1.47-1,1.8-2.07,3.58-3.14,5.35-.43.72-.28,1,.56,1s1.68-.09,2.52,0a2.52,2.52,0,0,1,2.4,2.39,6.14,6.14,0,0,1-.91,3.77c-1.1,1.95-2.11,4-4.09,5.18a18.13,18.13,0,0,1-3,1.35c-1.11.42-1.46,1.24-.94,2.63a1.35,1.35,0,0,0,2,.83,8.38,8.38,0,0,0,2.57-1.68c2.88-3.25,5.68-6.57,8.45-9.91,1.09-1.32,2-2.77,3-4.15.61-.82,1.54-.88,2.65-.11.71.49,1.37.85.74,2.08a18.84,18.84,0,0,0-1.38,4.69c-.39,1.83-.62,3.7-.89,5.56a4.27,4.27,0,0,0,.14,1.12,3.64,3.64,0,0,0,1-.42c.64-.54,1.23-1.14,1.82-1.74s1.28-1,2.21-.49c.75.43,1.24.2,1.71-.62,3.28-5.77,6.63-11.51,10-17.25.56-1,3-1.6,3.72-.87a1.61,1.61,0,0,1,.08,1.48c-1.36,2.52-2.8,5-4.23,7.47s-3,5.24-4.56,7.86c-.48.83-1,1.65-1.38,2.52-.85,1.85-2.46,1.48-3.94,1.39C324.24,333.94,324.24,333.88,323,335.74Zm-21.27-4.53c.69-.34,1.46-.48,1.84-.94,1-1.28,1.93-2.69,2.89-4,.43-.61.91-1.41.2-1.87a2.53,2.53,0,0,0-2,.2,10.34,10.34,0,0,0-4,4.3,2,2,0,0,0-.25,1.52C300.53,330.76,301.21,330.92,301.72,331.21Zm8.44,4.22a10.26,10.26,0,0,1,2,.82,1.78,1.78,0,0,0,2.85-.41c1.53-2.2,1.07-4.85,1.6-7.34C314,330.38,312.52,333.21,310.17,335.43Zm-60.49.06a9.12,9.12,0,0,1,1.34.67c1.37,1,2.51.92,3.05-.61.82-2.32,1.29-4.77,2-7.42C254.3,329,251,332.94,249.68,335.49Z"/>
<path class="cls-1" d="M237.21,285.6a3.54,3.54,0,0,1,1-.36,10.44,10.44,0,0,1,3.7.12c1.26.47,1.6,2.84.86,4.14-1.81,3.18-3.65,6.34-5.46,9.52a3,3,0,0,0-.44,1.23c0,.69.29,1.21,1.1.94a4.8,4.8,0,0,0,1.6-.77,29.6,29.6,0,0,0,7.68-9.37c1.16-2.33,2.64-4.53,5.2-5.58,1.93-.79,3.89-1,5.8.28a2.88,2.88,0,0,1,1.22,3c-.6,3.88-4.53,8.86-9.8,8.11-1.34-.19-1.91.51-2.32,1.55a1.86,1.86,0,0,0,1.18,2.69,4.71,4.71,0,0,0,4.35-.64,52.34,52.34,0,0,0,5.12-4.08c.65-.55,1.29-.82,1.88-.2s.29,1.21-.25,1.8a22.42,22.42,0,0,1-7.7,5.53,7,7,0,0,1-8.1-2c-.6-.77-1.21-.72-1.94-.12-1.45,1.19-2.91,2.38-4.89,2.57-1.44.14-3,.22-3.71-1.26a4.7,4.7,0,0,1,.28-4.48c1.61-2.8,3.21-5.6,4.76-8.43a3.94,3.94,0,0,0,.16-1.42,4.33,4.33,0,0,0-1.43.31,18.27,18.27,0,0,0-6.11,6.59c-1.14,2-2.35,4-3.53,6a2.56,2.56,0,0,0-.27.53c-.66,2.16-2.93,2.66-5.06,1.43-.37-.21-1,0-1.52.08a16,16,0,0,1-3.67.66,3.06,3.06,0,0,1-2.3-4.75q3.44-6.07,6.91-12.13c.58-1,.37-1.41-.74-1.63a4.24,4.24,0,0,1-1.12-.62,8.65,8.65,0,0,1,.9-1.18,1.09,1.09,0,0,1,.8-.15c2,.28,3-.92,3.72-2.5a26.4,26.4,0,0,1,1.3-2.41,3.45,3.45,0,0,1,4-1.37c.82.26.59.88.33,1.36-.62,1.16-1.27,2.3-2,3.4-.53.8-.36,1.17.49,1.52.4.16.67.61,1,.93-.36.32-.74.92-1.09.91-2.36-.11-3.23,1.44-4.19,3.22-2,3.68-4.16,7.24-6.22,10.87a5.11,5.11,0,0,0-.31,1.53c.55,0,1.29.34,1.63.09,1.43-1.05,2.71-2.31,4.11-3.41,3.37-2.66,5-6.51,7.07-10.07,1.75-3,3.47-6.08,5.24-9.09a3.43,3.43,0,0,1,4-1.19c.2.1.32.85.16,1.14-.94,1.8-2,3.55-3,5.33a16.4,16.4,0,0,0-.7,1.67ZM256,289c-.1-.15-.27-.72-.55-.79-.53-.12-1.39-.15-1.65.16a43.89,43.89,0,0,0-3.58,5c-.51.84.13,1.48,1.11,1.34C253.1,294.45,256,291.1,256,289Z"/>
<path class="cls-1" d="M98.59,306.06a11.19,11.19,0,0,1-8.55-3c-3-2.68-3.83-6.13-3.31-10a9.15,9.15,0,0,1,3.2-5.85c.64-.56,1.33-.92,2-.22s1,1.36,0,2.24c-2.45,2.34-2.87,5.23-1.87,8.37.11.36.51.87.78.88a1.5,1.5,0,0,0,1.11-.65c2.44-4.15,4.79-8.35,7.24-12.5a78.86,78.86,0,0,1,4.9-7.74,6.23,6.23,0,0,1,9.14-.57c1.1,1.13,1.38,4.51.47,6.13a8.15,8.15,0,0,1-3.92,3.86c-.91.38-.64,1.08-.19,1.55,2.73,2.86,2.11,6.33,1.51,9.63-.24,1.34-1.52,2.56-2.51,3.67A12.08,12.08,0,0,1,98.59,306.06Zm-.06-2.89a9.13,9.13,0,0,0,8.93-7.36c.52-3.33-.71-6.45-4.37-7.21a2.1,2.1,0,0,0-1.76.51,37.64,37.64,0,0,0-2.21,3.68c-1.56,2.64-3.09,5.29-4.7,7.9-.45.73-.41,1.26.35,1.51C96,302.6,97.27,302.86,98.53,303.17Zm5.12-17.76a4.1,4.1,0,0,0,.89.28c2.72,0,5.82-2.38,6.21-5.08a3.06,3.06,0,0,0-1-2.09,1.71,1.71,0,0,0-1.64.21,25.59,25.59,0,0,0-2.89,3.56A24.72,24.72,0,0,0,103.65,285.41Z"/>
<path class="cls-3" d="M194.72,74.26c-1.5.77-2.91,1.5-4.32,2.21a2.6,2.6,0,0,1-3.1-.56,2.41,2.41,0,0,1-.45-2.89c.85-1.75,1.81-3.45,2.74-5.17.44-.8,1-1.56,1.34-2.39.14-.31,0-.75,0-1.13a3.91,3.91,0,0,0-1,.26c-2.71,1.57-4.16,4.21-5.69,6.78-.79,1.33-1.49,2.72-2.26,4.06-.55,1-2.11,1.29-3.46.93a3.45,3.45,0,0,0-1.91.06,3,3,0,0,1-3.52-.63c-.88-.9-1-1.86-.21-3.29,1.63-2.92,3.34-5.79,5-8.68.23-.41.39-.86.64-1.41l-2-.79c.34-.81.77-1.51,1.7-1.42,1.6.16,2.27-.84,2.88-2a5.08,5.08,0,0,1,1.18-1.9,5.56,5.56,0,0,1,2.4-.65c.14,0,.57.69.51,1a5.79,5.79,0,0,1-.72,1.47c-.39.77-1.21,1.52.24,2.18.65.3.4,1.62-.26,1.55-2.65-.27-3.14,1.91-4.12,3.48-1.36,2.2-2.61,4.47-3.9,6.72a7.1,7.1,0,0,0-.51,1.08c-.26.71.13,1.21.88,1a3.73,3.73,0,0,0,1.37-.69,23.67,23.67,0,0,0,5.93-7.71c1.7-3.11,3.48-6.17,5.25-9.24a2.68,2.68,0,0,1,2.78-1c.74.24.75.73.42,1.32-.67,1.18-1.36,2.35-2,3.55a5.14,5.14,0,0,0-.3,1.22c.41,0,.82.06,1.22.05a8.52,8.52,0,0,1,1.3-.1,2.21,2.21,0,0,1,1.79,3.35c-1.27,2.4-2.63,4.74-4,7.11-.08.14-.23.26-.25.4-.07.54-.11,1.09-.15,1.63a4.69,4.69,0,0,0,1.72-.38,21.18,21.18,0,0,0,6.21-7.76c1.17-2.22,2.69-4,5.33-4.35s4.27.7,4.1,3a5.11,5.11,0,0,1-.55,2c-1.47,2.78-3.53,4.7-7,4.51-.79,0-1.72-.09-1.87,1-.08.59-.12,1.58.19,1.76a3.24,3.24,0,0,0,2.42.49,33.49,33.49,0,0,0,4.57-2.71c.46-.3.76-.86,1.23-1.12a3.2,3.2,0,0,1,1.3-.07c0,.45.13,1.05-.1,1.33a14,14,0,0,1-8.07,5,4.67,4.67,0,0,1-4.29-1.64C195.13,74.79,194.9,74.47,194.72,74.26Zm6.65-5.17a3.88,3.88,0,0,0,1.29-.72,12.46,12.46,0,0,0,1.73-2.54c.2-.4,0-1,0-1.51-.54.07-1.31-.06-1.58.25a25.25,25.25,0,0,0-2.5,3.45C199.89,68.71,200.38,69,201.37,69.08Z"/>
<path class="cls-3" d="M154.36,59.62a4.45,4.45,0,0,1,.77.45c.28.26.77.66.71.84a2.12,2.12,0,0,1-.88,1c-.24.15-.66,0-.93.14-.61.31-1.4.57-1.7,1.09-1.92,3.25-3.73,6.56-5.56,9.87-.15.27-.28.79-.15.92a1,1,0,0,0,1,.2,14.56,14.56,0,0,0,3.34-2.59,50.15,50.15,0,0,0,4.19-6.34,6.94,6.94,0,0,1,5.29-3.86,3.54,3.54,0,0,1,4,4.4,19.59,19.59,0,0,1-1.83,4.1,10,10,0,0,0-.52.94,4.56,4.56,0,0,0-.12,1,3.13,3.13,0,0,0,1.23,0c.6-.29,1.09-.8,1.69-1.12a4.2,4.2,0,0,1,1.21-.24c-.05.54.09,1.41-.18,1.57a17.26,17.26,0,0,1-4.26,2A5.93,5.93,0,0,0,159.14,75a6.59,6.59,0,0,1-4.43,1.81,3.24,3.24,0,0,1-2.83-1.48c-.55-.81-1.1-1.13-2-.37a11.84,11.84,0,0,1-2.7,1.48,3,3,0,0,1-3.66-.92,3.41,3.41,0,0,1,.23-3.39c1.75-2.94,3.45-5.9,5.17-8.85.43-.75.26-1.18-.64-1.33a3.61,3.61,0,0,1-1-.48,6.88,6.88,0,0,1,.7-.9,1.11,1.11,0,0,1,.74-.35c2,.23,2.71-1.24,3.44-2.69.55-1.08,1.15-2.13,2.64-2.06,1.18.05,1.58.69,1,1.73C155.33,58,154.86,58.77,154.36,59.62Zm1.47,14.57c.23-.17,1.13-.54,1.12-.89a4.37,4.37,0,0,1,2.49-4,1.47,1.47,0,0,0,.44-.56q.77-1.41,1.52-2.84c.36-.68.78-1.41-.14-2s-1.56-.07-2.07.57A21.13,21.13,0,0,0,157.53,67c-1.09,1.84-2.17,3.69-3.17,5.59C153.85,73.54,154.37,74.23,155.83,74.19Z"/>
<path class="cls-3" d="M343.32,69H330.75a3.62,3.62,0,0,1-1.3-.12c-.31-.12-.72-.51-.72-.78a1.41,1.41,0,0,1,.57-1,2.44,2.44,0,0,1,1.26-.22q12.7,0,25.4,0a3.08,3.08,0,0,1,1.4.22,1.29,1.29,0,0,1,.6,1,1.28,1.28,0,0,1-.75.84,4.11,4.11,0,0,1-1.42.11Z"/>
<path class="cls-3" d="M115.88,69H103.41a4.22,4.22,0,0,1-1.42-.13,1.14,1.14,0,0,1-.67-.79,1.32,1.32,0,0,1,.57-1,3.56,3.56,0,0,1,1.52-.22q12.59,0,25.17,0a2.05,2.05,0,0,1,1.05.11c.38.26.86.71.85,1.07s-.56.74-1,.93a2.92,2.92,0,0,1-1.18.06Z"/>
<path class="cls-1" d="M353.73,341.33c.46-.38.88-.68,1.25-1,1-.92,1-1.18-.11-2a2.29,2.29,0,0,1-1-2.7,2.39,2.39,0,0,1,2.44-1.74,2.72,2.72,0,0,1,2.86,1.52,5.87,5.87,0,0,1-2.81,7.41C355.11,343.47,354.46,343.06,353.73,341.33Z"/>
<path class="cls-1" d="M86.19,274.48c.53.48.95.89,1.4,1.25a2.13,2.13,0,0,1,.7,2.56,2.17,2.17,0,0,1-2.07,1.65c-2.85.28-3.61-1.66-3.63-3.49a6,6,0,0,1,3.06-5.32c1.17-.73,2.23-.42,2.58.75a1.33,1.33,0,0,1-.33,1A20.26,20.26,0,0,1,86.19,274.48Z"/>
<path class="cls-1" d="M348.59,333.85c2.43-.12,3.34,1.83,3.21,3.94a5.61,5.61,0,0,1-2.95,4.77,3.15,3.15,0,0,1-2.13.23c-.81-.22-.83-1.41-.14-2,.18-.15.36-.31.53-.47,1.07-1,1.07-1-.06-1.93a2.7,2.7,0,0,1-.88-3.17A2.28,2.28,0,0,1,348.59,333.85Z"/>
<path class="cls-1" d="M80.58,272.46l-2.2,2c.41.37.71.66,1,.92a2.47,2.47,0,0,1,1,2.86,2.17,2.17,0,0,1-2.06,1.71c-1.3.07-2.55,0-3.17-1.38A5.8,5.8,0,0,1,78.25,271C79.44,270.45,79.8,270.72,80.58,272.46Z"/>
</svg>