<svg xmlns="http://www.w3.org/2000/svg" viewBox="0 0 21.94 21.38" width="23" height="21" id="svg3688"><defs id="defs3682"><style id="style3680">.cls-1{fill:#ccc}</style></defs><path class="cls-1" d="M13.76 0a3.23 3.23 0 0 1 1.6.24c.196.57.33 1.16.4 1.76.069.665-.158 1.436-.403 2.076-.32 1.002-1.595 2.454-1.593 3.336.64.018 2.992.128 3.555.112.733.008 2.19.079 2.643.347 1.673 1.378.796 2.865.764 3.238-.043.502.727 1.83.74 2.45-.18.307-.255.793-.536.971 0 0-.05.15-.06.22 0 1.1.14 2.15-.89 3.08-.34.31-.23 1.27-1 1.75-.52.34-.78 1.06-1.22 1.55a1.09 1.09 0 0 1-.74.23H7.18a1.52 1.52 0 0 1-1.7-1.69V7.2c.046-.523.901-.633 1.269-1.009 1.674-1.234 3.145-2.709 4.25-3.856C12.054 1.475 12.447.36 13.76 0zM7.877 16.933l.049 1.956c.014.572 7.188.085 7.708.195.27.06 1.27-.525 1.38-.715.18-.388.66-.834.692-1.26.26-1.28.723-1.34.963-2.8.02-.193-.01-.952-.03-1.144-.079-.89-.138-1.506-.19-2.372l-.602-.829c-.696-.37-.765-.307-2.21-.308l-1.995.021c-.649.007-3.809.733-2.453-1.91L13.26 3.22c-1.417 1.613-5.018 4.784-5.3 5.415-.18 2.67.112 5.555-.084 8.3z" id="path3684" fill="#999"/><path class="cls-1" d="M0 7.7h3.35c1.249 0 1.21-.103 1.21 1.11v12.58H0z" id="path3686" fill="#999"/></svg>