<svg xmlns="http://www.w3.org/2000/svg" width="32" height="95.533" viewBox="0 0 8.4666663 25.276472"><path d="M.296 22.115h4.218v.6l-2.109.974-2.109-1.058"/><path d="M.296 23.165v2.111h4.24v-2.11l-2.13 1.092M1.625.393A1.077 1.077 0 0 0 .918.004.992.992 0 0 0 .18.24c-.352.373-.1 1.087.021 1.455.678 1.963 2.646 2.879 3.75 3.12a1.035 1.035 0 0 0 .838-.077c.394-.283.53-1.08.122-1.477-.289-.28-.82-.338-1.059-.132-.103.093-.068.172-.153.22-.214.121-.53-.331-1.368-.948-.346-.264-.635-.423-.638-.695 0-.114.05-.133.098-.297A1.204 1.204 0 0 0 1.625.393z"/></svg>