<svg xmlns="http://www.w3.org/2000/svg" width="76.829" height="1052.861" viewBox="0 0 20.327642 278.56943"><path d="M18.543 268.48c-.016.326-.244.474-.492.63a.775.775 0 0 0-.265.371 1.095 1.095 0 0 0 0 .376v8.712H2.46c0-.145-.019-.29-.019-.433v-8.406c0-.315 0-.588-.407-.688a.548.548 0 0 1-.363-.564v-3.159a.712.712 0 0 1 .717-.714h4.99a3.096 3.096 0 0 0 .442-.066v-.088l-1.1-.624a6.006 6.006 0 0 1-2.011-1.68 1.852 1.852 0 0 1 .264-2.583 4.292 4.292 0 0 1 .704-.56 2.043 2.043 0 0 1 .908-.265c.915-.019 1.587.765 1.852 1.058a3.63 3.63 0 0 1 .301.442c.672 1.058.794 1.667 1.117 2.797.032.11.156.198.235.296.077-.1.196-.188.22-.299a8.08 8.08 0 0 1 .839-2.294c.794-1.42 2.542-1.609 3.532-.35.376.48.638.983.161 1.702a5.863 5.863 0 0 1-1.942 1.72c-.378.233-.772.444-1.159.667v.082a4.358 4.358 0 0 0 .53.066h5.365c.511 0 .776.198.9.64zm-1.588 5.028v-3.876c0-.453-.045-.49-.484-.492h-4.058c-.464 0-.53.053-.53.529v7.71c0 .376.04.418.418.418h4.234c.301 0 .402-.103.4-.402.005-1.286.005-2.57.005-3.887zm-13.657 0v3.789c0 .47.031.508.492.508h4.127c.402 0 .453-.056.453-.458v-7.715c0-.381-.106-.495-.45-.495H3.816c-.468 0-.529.069-.529.53q0 1.925.003 3.841zm5.887-1.852v5.66c0 .42.047.465.473.47h.823c.508 0 .542-.034.542-.529V266.11a2.8 2.8 0 0 0 0-.286.362.362 0 0 0-.344-.38h-.862c-.574 0-.632.055-.632.632q-.011 2.802-.008 5.588zm-3.75-3.36H7.96c.232 0 .418-.043.415-.342v-2.085c0-.296-.14-.433-.45-.433H2.97c-.381 0-.466.087-.469.465v1.926c0 .408.04.455.447.458.829.027 1.654.021 2.485.021zm9.348 0h2.495c.286 0 .418-.1.408-.41-.019-.633 0-1.265 0-1.898 0-.481-.066-.547-.548-.55h-4.773c-.397 0-.463.058-.466.453v2.024c0 .296.12.386.397.383h2.487zm-5.667-4.27l.063-.083c-.145-.529-.264-1.077-.439-1.587a6.678 6.678 0 0 0-1.01-2.05c-.747-.927-1.588-.728-2.26-.038-.35.363-.45.672-.185 1.175a3.664 3.664 0 0 0 1.296 1.304 20.185 20.185 0 0 0 1.77 1.008 5.387 5.387 0 0 0 .765.27zm1.96-.707c.056.304.133.368.395.264a5.778 5.778 0 0 0 .529-.264 5.924 5.924 0 0 0 1.825-1.323c.387-.429.458-.89.125-1.207-.334-.317-.985-.637-1.429-.264a2.715 2.715 0 0 0-.701.86c-.296.619-.5 1.28-.744 1.926zm6.358-163.727a3.995 3.995 0 0 0-.058.455v8.753c0 .32.122.439.42.428h.601c.368 0 .286.28.305.5.018.22-.104.297-.32.294H2.17c-.264 0-.45 0-.423-.352.027-.394.045-.436.431-.444h.19c.385 0 .43-.058.43-.445v-8.694a3.836 3.836 0 0 0-.04-.391l-.093-.064c-.193.161-.391.31-.571.482-.37.344-.72.722-1.082 1.074-.215.211-.471.161-.73-.183-.138-.18-.038-.32.124-.476q2.116-2.053 4.215-4.13c1.693-1.683 3.373-3.382 5.064-5.072.362-.352.439-.352.812 0l2.738 2.762c.088.087.183.161.342.302a4.477 4.477 0 0 0 .074-.53v-2.325c0-.41.053-.455.452-.458h2.752c.468 0 .529.05.529.53 0 1.98.016 3.95 0 5.94a1.42 1.42 0 0 0 .582 1.23 25.739 25.739 0 0 1 1.852 1.851c.238.247.032.416-.137.58a.323.323 0 0 1-.53 0q-.624-.677-1.29-1.31a4.387 4.387 0 0 0-.427-.307zm-7.374 9.64h5.916c.564 0 .564 0 .564-.549v-9.739a.72.72 0 0 0-.22-.6 74.166 74.166 0 0 1-2.167-2.117l-3.685-3.67c-.341-.333-.42-.33-.762 0q-2.86 2.831-5.731 5.654a1.032 1.032 0 0 0-.352.794v9.79c0 .404.021.426.431.426zm6.287-11.957l.122-.067a1.347 1.347 0 0 0 .068-.296v-4.609c0-.246-.121-.36-.373-.352H14.96c-.407 0-.484.12-.486.495 0 .696.031 1.392 0 2.085a1.553 1.553 0 0 0 .55 1.36c.476.428.878.92 1.32 1.384zm-6.199-85.332h8.818a1.357 1.357 0 0 1 1.199.561c.293.413.172 1.998-.22 2.32a1.339 1.339 0 0 1-.648.265.35.35 0 0 0-.357.381 2.466 2.466 0 0 1-1.186 2.074 2.381 2.381 0 0 1-1.169.397q-6.43.043-12.861 0a2.265 2.265 0 0 1-1.871-1.058 2.469 2.469 0 0 1-.49-1.437c0-.22-.108-.328-.349-.352a1.021 1.021 0 0 1-1.008-1.047v-.061c0-.297.027-.593 0-.887-.074-.695.53-1.11 1.109-1.161.264-.024.505 0 .76 0zm0 3.162H3.036c-.794 0-.921.164-.662.931a1.164 1.164 0 0 0 .148.265 1.98 1.98 0 0 0 1.76.857h11.753a2.334 2.334 0 0 0 .346 0c.71-.108 1.44-.58 1.606-1.352.114-.53 0-.696-.545-.696zm0-.844h8.379c.966 0 .96 0 .947-.963a.426.426 0 0 0-.391-.46h-.027a1.76 1.76 0 0 0-.315 0H1.543a1.852 1.852 0 0 0-.285 0c-.265.042-.453.166-.426.478v.315c0 .558.082.635.645.635zm-.003-6.101h-8.12c-.609 0-.65-.04-.65-.64A6.662 6.662 0 0 1 2.548 3.8a7.509 7.509 0 0 1 2.397-2.332A15.367 15.367 0 0 1 6.962.53C8.28-.024 9.672-.056 11.06.045a14.462 14.462 0 0 1 2.24.484 6.988 6.988 0 0 1 2.15 1.008 7.79 7.79 0 0 1 2.406 2.416 6.615 6.615 0 0 1 1.082 3.598c0 .566-.058.624-.643.624zm-.034-.881h7.265c.622 0 .654-.037.582-.628-.153-1.251-.76-2.28-1.587-3.193a8.033 8.033 0 0 0-2.255-1.683A9.02 9.02 0 0 0 11.12.878a7.821 7.821 0 0 0-2.601.117 8.414 8.414 0 0 0-3.75 1.677C3.404 3.762 2.51 5.141 2.288 6.905a.296.296 0 0 0 .227.35h.037a1.603 1.603 0 0 0 .344 0zm9.049 2.434a10.073 10.073 0 0 0-1.162.838c-.733.704-1.117-.095-1.604-.349-.404-.211-.484-.264-.867.03a6.125 6.125 0 0 1-.76.528.564.564 0 0 1-.468 0 9.24 9.24 0 0 1-.905-.642.484.484 0 0 0-.638 0 9.525 9.525 0 0 1-.904.645.587.587 0 0 1-.493 0 7.821 7.821 0 0 1-.883-.632.487.487 0 0 0-.638-.019c-.302.217-.59.455-.907.643a.553.553 0 0 1-.466.019 8.107 8.107 0 0 1-.884-.625.53.53 0 0 0-.717 0 7.77 7.77 0 0 1-.884.625.53.53 0 0 1-.439 0 8.766 8.766 0 0 1-.833-.585c-.339-.251-.453-.251-.794 0a8.57 8.57 0 0 1-.836.582.482.482 0 0 1-.413.037c-.529-.35-1.026-.733-1.54-1.106a3.424 3.424 0 0 1 .22-.352c.159-.193.33-.32.585-.121.18.145.38.264.56.404a.484.484 0 0 0 .683 0c.265-.217.559-.41.847-.606a.49.49 0 0 1 .616.022c.265.203.543.394.794.603a.45.45 0 0 0 .606 0c.291-.21.574-.42.868-.63a.505.505 0 0 1 .643.027l.841.61a.444.444 0 0 0 .58 0c.264-.2.542-.396.812-.597a.53.53 0 0 1 .696 0 8.66 8.66 0 0 0 .86.619.585.585 0 0 0 .486.024 7.673 7.673 0 0 0 .884-.614.53.53 0 0 1 .693 0 7.937 7.937 0 0 0 .874.616.622.622 0 0 0 .529 0 6.755 6.755 0 0 0 .841-.608.53.53 0 0 1 .696 0l.812.603a.452.452 0 0 0 .582 0c.196-.143.384-.294.588-.423.29-.19.452-.151.648.143a3.548 3.548 0 0 1 .19.29z" class="cls-1" fill="#81b3d2"/><path d="M7.97 105v-2.717c0-.357.066-.428.423-.428h3.44c.386 0 .434.055.434.441v5.467c0 .378-.056.452-.431.455h-3.44c-.336 0-.426-.103-.426-.442-.002-.92 0-1.85 0-2.776zm.884.04v1.992c0 .188.034.347.264.35h2a.265.265 0 0 0 .302-.294v-3.982c0-.296-.164-.429-.468-.42H9.365c-.432 0-.493.058-.498.489-.018.622-.016 1.235-.016 1.855zm3.323-6.845c.058 1.17-1.037 2.083-2.064 2.064a2.085 2.085 0 0 1-.053-4.164c1.157.005 2.149.801 2.117 2.1zm-3.315-.029c-.061.794.76 1.297 1.249 1.289.664 0 1.323-.62 1.275-1.273-.045-.762-.505-1.262-1.294-1.278a1.244 1.244 0 0 0-1.22 1.246zm-3.387 4.218c0 .545-.082.63-.555.563a.265.265 0 0 1-.093-.016c-.336-.203-.14-.529-.177-.793-.027-.204.121-.265.301-.265.482-.056.524-.018.524.51zm1.654 0c-.072.529-.106.56-.5.571-.302 0-.426-.122-.402-.415v-.19c0-.458.232-.652.65-.466.13.053.17.322.252.5zm6.823.013c0 .492-.042.545-.42.548-.379.002-.408-.045-.413-.418v-.265c0-.4.034-.431.426-.429.392.003.407.048.407.564zm1.651-.013c-.074.51-.113.566-.47.574-.358.008-.432-.043-.434-.426v-.188c0-.452.235-.64.645-.45.132.05.175.31.26.49zm-10.128 1.587c0 .53-.122.659-.587.553-.08-.018-.204-.095-.21-.156a1.894 1.894 0 0 1 .022-.775c.037-.103.357-.135.55-.138.077 0 .172.159.225.265.053.106 0 .164 0 .251zm1.58 0c0 .53-.12.659-.585.556-.08-.019-.204-.095-.21-.154a1.897 1.897 0 0 1 .02-.775c.037-.103.354-.137.547-.137.077 0 .175.158.228.264.053.106 0 .159 0 .246zm6.061 0c0-.5.016-.529.39-.529.372 0 .441.034.444.447v.156c0 .434-.058.495-.445.492-.386-.002-.386-.047-.386-.473-.003-.04-.003-.072-.003-.093zm1.53 0c.053-.529.074-.545.476-.542.402.002.405.045.407.42v.22c0 .405-.36.64-.688.413-.132-.072-.132-.336-.195-.51zM8.01 3.175a.55.55 0 0 1-.558-.53.569.569 0 0 1 .574-.528.51.51 0 0 1 .547.529.55.55 0 0 1-.553.529zm4.291 0a.53.53 0 0 1-.026-1.058.58.58 0 0 1 .571.529.545.545 0 0 1-.545.529zm-2.174.245a.553.553 0 0 1 .595.509v.018a.564.564 0 0 1-1.125.024.53.53 0 0 1 .503-.55z" class="cls-1" fill="#81b3d2"/></svg>