<svg xmlns="http://www.w3.org/2000/svg" viewBox="0 0 43.491001 54.622967" width="43.491" height="54.623"><path d="M1.395 3.503l20.4-2.1 20.3 2.1v37.5l-20.3 12-20.4-12z" fill="none" stroke="#aaa" stroke-width="2.791"/><path d="M1.695 20.903l19.4-11.3 20.9 11.3v1.2l-20.2 11.9-20.1-11.9z" fill="none" stroke="#aaa" stroke-width="2.057"/><path d="M21.796 32.803l2.9-1.9-2.9-1.9v-1.9l4.7 2.8 1.5-.9-6.2-3.7v-2.2l7.9 4.8 1.6-.9-9.5-5.9v-2.1l12.9 7.9v8.4l-12.9 7.8-13.1-7.6v-2.2l13.1 7.9v-2.1l-13.1-7.7v-1.9l13.1 7.6z" fill="#aaa"/></svg>