<svg xmlns="http://www.w3.org/2000/svg" viewBox="0 0 66.324448 6.4558101" height="24.4" width="250.675"><path d="M30 2.223h.794v-.741c0-.291.08-.715.29-1.006.212-.29.477-.476 1.006-.476.847 0 1.164.132 1.164.132l-.185 1.006s-.37-.08-.635-.08c-.264 0-.582.106-.582.37v.794h1.217l-.08 1.059h-1.137v3.175h-1.058V3.28H30zM6.324 1.905a2.383 2.383 0 0 1-.741.212c.264-.16.476-.424.582-.715a2.39 2.39 0 0 1-.82.318 1.385 1.385 0 0 0-.98-.424 1.3 1.3 0 0 0-1.296 1.297c0 .106 0 .212.027.291a3.71 3.71 0 0 1-2.673-1.35c-.132.186-.185.424-.185.662 0 .45.238.847.582 1.085-.211 0-.423-.053-.582-.159v.027c0 .635.45 1.164 1.058 1.27a1.339 1.339 0 0 1-.344.053c-.079 0-.158 0-.238-.027.16.53.635.9 1.217.9A2.647 2.647 0 0 1 .317 5.9c-.105 0-.211 0-.317-.026.582.37 1.27.582 1.984.582 2.408 0 3.705-1.985 3.705-3.704v-.16c.238-.184.45-.422.635-.687M65.133.106h-3.916A1.23 1.23 0 0 0 60 1.323v3.89c0 .687.556 1.243 1.217 1.243h3.89c.687 0 1.217-.556 1.217-1.217V1.323C66.35.66 65.794.106 65.133.106zm.344.74h.132v1.059h-1.085V.82zM62.275 2.62c.212-.29.53-.476.9-.476s.714.185.9.476a1.118 1.118 0 0 1-.9 1.773 1.118 1.118 0 0 1-.9-1.773zm3.466 2.62a.599.599 0 0 1-.608.608h-3.916a.599.599 0 0 1-.608-.608V2.646h.952c-.08.211-.132.423-.132.661 0 .953.767 1.747 1.746 1.747.953 0 1.746-.768 1.746-1.747 0-.238-.053-.45-.132-.661h.952z" fill="#fff" stroke-width=".265"/></svg>