<svg xmlns="http://www.w3.org/2000/svg" viewBox="0 0 107.14 18.37" width="107.14" height="18.37">
	<polyline points="91.12 3.21 107.06 3.21 107.06 5.48 99.09 9.16 91.12 5.16"/>
	<polyline points="91.12 7.18 91.12 15.16 107.14 15.16 107.14 7.18 99.09 11.31"/>
	<path d="M6.14,1.47A4.07,4.07,0,0,0,3.47,0,3.75,3.75,0,0,0,.68.89C-.65,2.3.3,5,.76,6.39c2.56,7.42,10,10.88,14.17,11.79a3.91,3.91,0,0,0,3.17-.29c1.49-1.07,2-4.08.46-5.58-1.09-1.06-3.1-1.28-4-.5-.39.35-.26.65-.58.83-.81.46-2-1.25-5.17-3.58-1.31-1-2.4-1.6-2.41-2.63,0-.43.19-.5.37-1.12A4.55,4.55,0,0,0,6.14,1.47Z"/>
</svg>