<?xml version="1.0" encoding="UTF-8" standalone="no"?>
<!-- Created with Inkscape (http://www.inkscape.org/) -->

<svg
   xmlns:dc="http://purl.org/dc/elements/1.1/"
   xmlns:cc="http://creativecommons.org/ns#"
   xmlns:rdf="http://www.w3.org/1999/02/22-rdf-syntax-ns#"
   xmlns:svg="http://www.w3.org/2000/svg"
   xmlns="http://www.w3.org/2000/svg"
   xmlns:sodipodi="http://sodipodi.sourceforge.net/DTD/sodipodi-0.dtd"
   xmlns:inkscape="http://www.inkscape.org/namespaces/inkscape"
   width="20.327642mm"
   height="278.56943mm"
   viewBox="0 0 20.327642 278.56943"
   version="1.1"
   id="svg3876"
   inkscape:version="0.92.1 r15371"
   sodipodi:docname="рисунок-1.svg">
  <defs
     id="defs3870" />
  <sodipodi:namedview
     id="base"
     pagecolor="#ffffff"
     bordercolor="#666666"
     borderopacity="1.0"
     inkscape:pageopacity="0.0"
     inkscape:pageshadow="2"
     inkscape:zoom="0.35"
     inkscape:cx="46.985871"
     inkscape:cy="520.71614"
     inkscape:document-units="mm"
     inkscape:current-layer="layer1"
     showgrid="false"
     fit-margin-top="0"
     fit-margin-left="0"
     fit-margin-right="0"
     fit-margin-bottom="0"
     inkscape:window-width="1366"
     inkscape:window-height="716"
     inkscape:window-x="1358"
     inkscape:window-y="-8"
     inkscape:window-maximized="1" />
  <metadata
     id="metadata3873">
    <rdf:RDF>
      <cc:Work
         rdf:about="">
        <dc:format>image/svg+xml</dc:format>
        <dc:type
           rdf:resource="http://purl.org/dc/dcmitype/StillImage" />
        <dc:title></dc:title>
      </cc:Work>
    </rdf:RDF>
  </metadata>
  <g
     inkscape:label="Layer 1"
     inkscape:groupmode="layer"
     id="layer1"
     transform="translate(-93.401655,-8.0367122)">
    <g
       id="g3812"
       transform="matrix(0.26458333,0,0,0.26458333,93.407852,49.037067)">
      <path
         id="path3751"
         d="m 70.06,859.76889 c -0.06,1.23 -0.92,1.79 -1.86,2.38 a 2.93,2.93 0 0 0 -1,1.4 4.14,4.14 0 0 0 0,1.42 v 32.93 H 9.27 c 0,-0.55 -0.07,-1.1 -0.07,-1.64 v -31.77 c 0,-1.19 0,-2.22 -1.54,-2.6 a 2.07,2.07 0 0 1 -1.37,-2.13 v -11.94 a 2.69,2.69 0 0 1 2.71,-2.7 h 0.21 c 2.35,0 4.7,0 7,0 h 11.65 a 11.7,11.7 0 0 0 1.67,-0.25 v -0.33 l -4.16,-2.36 a 22.7,22.7 0 0 1 -7.6,-6.35 7,7 0 0 1 1,-9.76 16.22,16.22 0 0 1 2.66,-2.12 7.72,7.72 0 0 1 3.43,-1 c 3.46,-0.07 6,2.89 7,4 a 13.72,13.72 0 0 1 1.14,1.67 c 2.54,4 3,6.3 4.22,10.57 0.12,0.42 0.59,0.75 0.89,1.12 0.29,-0.38 0.74,-0.71 0.83,-1.13 a 30.54,30.54 0 0 1 3.17,-8.67 c 3,-5.37 9.61,-6.08 13.35,-1.32 1.42,1.81 2.41,3.71 0.61,6.43 a 22.16,22.16 0 0 1 -7.34,6.5 c -1.43,0.88 -2.92,1.68 -4.38,2.52 v 0.31 a 16.47,16.47 0 0 0 2,0.25 h 20.28 c 1.93,0 2.93,0.75 3.4,2.42 z m -6,19 v -14.65 c 0,-1.71 -0.17,-1.85 -1.83,-1.86 H 46.89 c -1.75,0 -2,0.2 -2,2 v 29.14 c 0,1.42 0.15,1.58 1.58,1.58 h 16 c 1.14,0 1.52,-0.39 1.51,-1.52 0.02,-4.86 0.02,-9.71 0.02,-14.69 z m -51.62,0 q 0,7.16 0,14.32 c 0,1.78 0.12,1.92 1.86,1.92 h 15.6 c 1.52,0 1.71,-0.21 1.71,-1.73 v -29.16 c 0,-1.44 -0.4,-1.87 -1.7,-1.87 H 14.4 c -1.77,0 -2,0.26 -2,2 q 0,7.28 0.01,14.52 z m 22.25,-7 v 21.39 c 0,1.59 0.18,1.76 1.79,1.78 h 3.11 c 1.92,0 2.05,-0.13 2.05,-2 v -42.13 a 10.58,10.58 0 0 0 0,-1.08 1.37,1.37 0 0 0 -1.3,-1.44 h -3.26 c -2.17,0 -2.39,0.21 -2.39,2.39 q -0.04,10.59 -0.03,21.12 z m -14.17,-12.7 h 9.54 c 0.88,0 1.58,-0.16 1.57,-1.29 v -7.88 c 0,-1.12 -0.53,-1.64 -1.7,-1.64 H 11.2 c -1.44,0 -1.76,0.33 -1.77,1.76 v 7.28 c 0,1.54 0.15,1.72 1.69,1.73 3.13,0.1 6.25,0.08 9.39,0.08 z m 35.33,0 h 9.43 c 1.08,0 1.58,-0.38 1.54,-1.55 -0.07,-2.39 0,-4.78 0,-7.17 0,-1.82 -0.25,-2.07 -2.07,-2.08 H 46.71 c -1.5,0 -1.75,0.22 -1.76,1.71 v 7.65 c 0,1.12 0.45,1.46 1.5,1.45 3.11,0 6.25,0 9.4,0 z m -21.42,-16.14 0.24,-0.31 c -0.55,-2 -1,-4.07 -1.66,-6 a 25.24,25.24 0 0 0 -3.82,-7.75 c -2.82,-3.5 -6,-2.75 -8.54,-0.14 -1.32,1.37 -1.7,2.54 -0.7,4.44 a 13.85,13.85 0 0 0 4.9,4.93 76.29,76.29 0 0 0 6.69,3.81 20.36,20.36 0 0 0 2.89,1.02 z m 7.41,-2.67 c 0.21,1.15 0.5,1.39 1.49,1 a 21.84,21.84 0 0 0 2,-1 22.39,22.39 0 0 0 6.9,-5 c 1.46,-1.62 1.73,-3.36 0.47,-4.56 -1.26,-1.2 -3.72,-2.41 -5.4,-1 a 10.26,10.26 0 0 0 -2.65,3.25 c -1.12,2.34 -1.89,4.84 -2.81,7.28 z"
         class="cls-1"
         inkscape:connector-curvature="0"
         style="fill:#81b3d2" />
      <path
         id="path3753"
         d="m 65.87,221.45 a 15.1,15.1 0 0 0 -0.22,1.72 v 33.08 c 0,1.21 0.46,1.66 1.59,1.62 h 2.27 c 1.39,0 1.08,1.06 1.15,1.89 0.07,0.83 -0.39,1.12 -1.21,1.11 H 8.18 c -1,0 -1.7,0 -1.6,-1.33 0.1,-1.49 0.17,-1.65 1.63,-1.68 h 0.72 c 1.45,0 1.62,-0.22 1.62,-1.68 v -32.86 a 14.5,14.5 0 0 0 -0.15,-1.48 l -0.35,-0.24 c -0.73,0.61 -1.48,1.17 -2.16,1.82 -1.4,1.3 -2.72,2.73 -4.09,4.06 -0.81,0.8 -1.78,0.61 -2.76,-0.69 -0.52,-0.68 -0.14,-1.21 0.47,-1.8 q 8,-7.76 15.93,-15.61 c 6.4,-6.36 12.75,-12.78 19.14,-19.17 1.37,-1.33 1.66,-1.33 3.07,0 L 50,200.65 c 0.33,0.33 0.69,0.61 1.29,1.14 a 16.92,16.92 0 0 0 0.28,-2 V 191 c 0,-1.55 0.2,-1.72 1.71,-1.73 h 10.4 c 1.77,0 2,0.19 2,2 0,7.49 0.06,14.93 0,22.45 a 5.37,5.37 0 0 0 2.2,4.65 97.28,97.28 0 0 1 7,7 c 0.9,0.93 0.12,1.57 -0.52,2.19 a 1.22,1.22 0 0 1 -2,0 Q 70,225 67.48,222.61 a 16.58,16.58 0 0 0 -1.61,-1.16 z M 38,257.88 h 22.36 c 2.13,0 2.13,0 2.13,-2.07 V 219 a 2.72,2.72 0 0 0 -0.83,-2.27 c -2.78,-2.6 -5.5,-5.27 -8.19,-8 L 39.54,194.86 c -1.29,-1.26 -1.59,-1.25 -2.88,0 Q 25.85,205.56 15,216.23 a 3.9,3.9 0 0 0 -1.33,3 v 37 c 0,1.53 0.08,1.61 1.63,1.61 z m 23.76,-45.19 0.46,-0.25 a 5.09,5.09 0 0 0 0.26,-1.12 V 193.9 c 0,-0.93 -0.46,-1.36 -1.41,-1.33 h -4.55 c -1.54,0 -1.83,0.45 -1.84,1.87 0,2.63 0.12,5.26 0,7.88 a 5.87,5.87 0 0 0 2.08,5.14 c 1.8,1.62 3.32,3.48 4.99,5.23 z"
         class="cls-1"
         inkscape:connector-curvature="0"
         style="fill:#81b3d2" />
      <path
         id="path3755"
         d="m 38.33,-109.82245 h 33.33 a 5.13,5.13 0 0 1 4.53,2.12 c 1.11,1.56 0.65,7.54999 -0.83,8.769994 a 5.06,5.06 0 0 1 -2.45,0.999999 1.32,1.32 0 0 0 -1.35,1.44 9.32,9.32 0 0 1 -4.48,7.839999 9,9 0 0 1 -4.42,1.5 q -24.3,0.16 -48.61,0 a 8.56,8.56 0 0 1 -7.07,-4 9.33,9.33 0 0 1 -1.85,-5.429999 c 0,-0.83 -0.41,-1.24 -1.32,-1.33 A 3.86,3.86 0 0 1 0,-101.87246 q 0,-0.12 0,-0.23 c 0,-1.12 0.1,-2.23999 0,-3.35 -0.28,-2.62999 2,-4.19999 4.19,-4.38999 1,-0.09 1.91,0 2.87,0 z m 0,11.949993 H 11.45 c -3,0 -3.48,0.62 -2.5,3.52 a 4.4,4.4 0 0 0 0.56,1 7.48,7.48 0 0 0 6.65,3.239999 h 44.42 a 8.82,8.82 0 0 0 1.31,0 c 2.68,-0.41 5.44,-2.19 6.07,-5.109999 0.43,-2 0,-2.63 -2.06,-2.63 z m 0,-3.190003 H 70 c 3.65,0 3.63,0 3.58,-3.63999 a 1.61,1.61 0 0 0 -1.48,-1.74 H 72 a 6.65,6.65 0 0 0 -1.19,0 h -65 a 7,7 0 0 0 -1.08,0 c -1,0.16 -1.71,0.63 -1.61,1.81 v 1.18999 c 0,2.11 0.31,2.4 2.44,2.4 z"
         class="cls-1"
         inkscape:connector-curvature="0"
         style="fill:#81b3d2" />
      <path
         id="path3757"
         d="M 38.32,-124.12245 H 7.63 c -2.3,0 -2.46,-0.15 -2.46,-2.42 a 25.18,25.18 0 0 1 4.44,-14.06001 28.38,28.38 0 0 1 9.06,-8.81 58.08,58.08 0 0 1 7.62,-3.55 c 4.98,-2.08999 10.24,-2.20999 15.49,-1.82999 a 54.66,54.66 0 0 1 8.46,1.82999 26.41,26.41 0 0 1 8.13,3.81 29.44,29.44 0 0 1 9.09,9.13 25,25 0 0 1 4.09,13.60001 c 0,2.14 -0.22,2.36 -2.43,2.36 z m -0.13,-3.33 h 27.46 c 2.35,0 2.47,-0.14001 2.2,-2.37001 -0.58,-4.73 -2.87,-8.62 -6,-12.07 a 30.36,30.36 0 0 0 -8.52,-6.36 34.09,34.09 0 0 0 -11.33,-3.39 29.56,29.56 0 0 0 -9.83,0.44 31.8,31.8 0 0 0 -14.17,6.34 c -5.16,4.12 -8.54,9.33 -9.38,16 a 1.12,1.12 0 0 0 0.86,1.32 h 0.14 a 6.06,6.06 0 0 0 1.3,0 z"
         class="cls-1"
         inkscape:connector-curvature="0"
         style="fill:#81b3d2" />
      <path
         id="path3759"
         d="m 72.39,-118.25245 a 38.07,38.07 0 0 0 -4.39,3.17 c -2.77,2.66 -4.22,-0.36 -6.06,-1.32 -1.53,-0.8 -1.83,-1 -3.28,0.11 a 23.15,23.15 0 0 1 -2.87,2 2.13,2.13 0 0 1 -1.77,0 34.92,34.92 0 0 1 -3.42,-2.43 1.83,1.83 0 0 0 -2.41,0 36,36 0 0 1 -3.42,2.44 2.22,2.22 0 0 1 -1.86,0 29.56,29.56 0 0 1 -3.34,-2.39 1.84,1.84 0 0 0 -2.41,-0.07 c -1.14,0.82 -2.23,1.72 -3.43,2.43 a 2.09,2.09 0 0 1 -1.76,0.07 30.64,30.64 0 0 1 -3.34,-2.36 2,2 0 0 0 -2.71,0 29.37,29.37 0 0 1 -3.34,2.36 2,2 0 0 1 -1.66,0 33.13,33.13 0 0 1 -3.15,-2.21 c -1.28,-0.95 -1.71,-0.95 -3,0 a 32.39,32.39 0 0 1 -3.16,2.2 1.82,1.82 0 0 1 -1.56,0.14 c -2,-1.32 -3.88,-2.77 -5.82,-4.18 a 12.94,12.94 0 0 1 0.83,-1.33 c 0.6,-0.73 1.25,-1.21 2.21,-0.46 0.68,0.55 1.44,1 2.12,1.53 a 1.83,1.83 0 0 0 2.58,0 c 1,-0.82 2.11,-1.55 3.2,-2.29 a 1.85,1.85 0 0 1 2.33,0.08 c 1,0.77 2.05,1.49 3,2.28 a 1.7,1.7 0 0 0 2.29,0 c 1.1,-0.79 2.17,-1.59 3.28,-2.38 a 1.91,1.91 0 0 1 2.43,0.1 l 3.18,2.31 a 1.68,1.68 0 0 0 2.19,0 c 1,-0.76 2.05,-1.5 3.07,-2.26 a 2,2 0 0 1 2.63,0 32.73,32.73 0 0 0 3.25,2.34 2.21,2.21 0 0 0 1.84,0.09 29,29 0 0 0 3.34,-2.32 2,2 0 0 1 2.62,0 30,30 0 0 0 3.3,2.33 2.35,2.35 0 0 0 2,0 25.53,25.53 0 0 0 3.18,-2.3 2,2 0 0 1 2.63,0 l 3.07,2.28 a 1.71,1.71 0 0 0 2.2,0 c 0.74,-0.54 1.45,-1.11 2.22,-1.6 1.1,-0.72 1.71,-0.57 2.45,0.54 a 13.41,13.41 0 0 1 0.72,1.1 z"
         class="cls-1"
         inkscape:connector-curvature="0"
         style="fill:#81b3d2" />
      <path
         id="path3761"
         d="m 30.1,241.89 v -10.27 c 0,-1.35 0.25,-1.62 1.6,-1.62 h 13 c 1.46,0 1.64,0.21 1.64,1.67 v 20.66 c 0,1.43 -0.21,1.71 -1.63,1.72 h -13 c -1.27,0 -1.61,-0.39 -1.61,-1.67 -0.01,-3.48 0,-6.99 0,-10.49 z m 3.34,0.15 v 7.53 c 0,0.71 0.13,1.31 1,1.32 H 42 a 1,1 0 0 0 1.14,-1.11 v -15.05 c 0,-1.12 -0.62,-1.62 -1.77,-1.59 -2,0 -4,0 -6,0 -1.63,0 -1.86,0.22 -1.88,1.85 -0.07,2.35 -0.06,4.67 -0.06,7.01 z"
         class="cls-1"
         inkscape:connector-curvature="0"
         style="fill:#81b3d2" />
      <path
         id="path3763"
         d="m 46,216.17 c 0.22,4.42 -3.92,7.87 -7.8,7.8 A 7.88,7.88 0 0 1 38,208.23 c 4.37,0.02 8.12,3.03 8,7.94 z m -12.53,-0.11 c -0.23,3 2.87,4.9 4.72,4.87 2.51,0 5,-2.34 4.82,-4.81 -0.17,-2.88 -1.91,-4.77 -4.89,-4.83 A 4.7,4.7 0 0 0 33.51,216 Z"
         class="cls-1"
         inkscape:connector-curvature="0"
         style="fill:#81b3d2" />
      <path
         id="path3765"
         d="m 20.67,232 c 0,2.06 -0.31,2.38 -2.1,2.13 a 1,1 0 0 1 -0.35,-0.06 c -1.27,-0.77 -0.53,-2 -0.67,-3 -0.1,-0.77 0.46,-1 1.14,-1 1.82,-0.21 1.98,-0.07 1.98,1.93 z"
         class="cls-1"
         inkscape:connector-curvature="0"
         style="fill:#81b3d2" />
      <path
         id="path3767"
         d="m 26.92,232 c -0.27,2 -0.4,2.12 -1.89,2.16 -1.14,0 -1.61,-0.46 -1.52,-1.57 v -0.72 c 0,-1.73 0.88,-2.46 2.46,-1.76 0.49,0.2 0.64,1.22 0.95,1.89 z"
         class="cls-1"
         inkscape:connector-curvature="0"
         style="fill:#81b3d2" />
      <path
         id="path3769"
         d="m 52.71,232.05 c 0,1.86 -0.16,2.06 -1.59,2.07 -1.43,0.01 -1.54,-0.17 -1.56,-1.58 v -1 c 0,-1.51 0.13,-1.63 1.61,-1.62 1.48,0.01 1.54,0.18 1.54,2.13 z"
         class="cls-1"
         inkscape:connector-curvature="0"
         style="fill:#81b3d2" />
      <path
         id="path3771"
         d="m 58.95,232 c -0.28,1.93 -0.43,2.14 -1.78,2.17 -1.35,0.03 -1.63,-0.16 -1.64,-1.61 v -0.71 c 0,-1.71 0.89,-2.42 2.44,-1.7 0.5,0.19 0.66,1.17 0.98,1.85 z"
         class="cls-1"
         inkscape:connector-curvature="0"
         style="fill:#81b3d2" />
      <path
         id="path3773"
         d="m 20.67,238 c 0,2 -0.46,2.49 -2.22,2.09 -0.3,-0.07 -0.77,-0.36 -0.79,-0.59 a 7.16,7.16 0 0 1 0.08,-2.93 c 0.14,-0.39 1.35,-0.51 2.08,-0.52 0.29,0 0.65,0.6 0.85,1 0.2,0.4 0,0.62 0,0.95 z"
         class="cls-1"
         inkscape:connector-curvature="0"
         style="fill:#81b3d2" />
      <path
         id="path3775"
         d="m 26.64,238 c 0,2 -0.45,2.49 -2.21,2.1 -0.3,-0.07 -0.77,-0.36 -0.79,-0.58 a 7.17,7.17 0 0 1 0.07,-2.93 c 0.14,-0.39 1.34,-0.52 2.07,-0.52 0.29,0 0.66,0.6 0.86,1 0.2,0.4 0,0.6 0,0.93 z"
         class="cls-1"
         inkscape:connector-curvature="0"
         style="fill:#81b3d2" />
      <path
         id="path3777"
         d="m 49.55,238 c 0,-1.89 0.06,-2 1.47,-2 1.41,0 1.67,0.13 1.68,1.69 v 0.59 c 0,1.64 -0.22,1.87 -1.68,1.86 -1.46,-0.01 -1.46,-0.18 -1.46,-1.79 -0.01,-0.15 -0.01,-0.27 -0.01,-0.35 z"
         class="cls-1"
         inkscape:connector-curvature="0"
         style="fill:#81b3d2" />
      <path
         id="path3779"
         d="m 55.33,238 c 0.2,-2 0.28,-2.06 1.8,-2.05 1.52,0.01 1.53,0.17 1.54,1.59 v 0.83 c 0,1.53 -1.36,2.42 -2.6,1.56 -0.5,-0.27 -0.5,-1.27 -0.74,-1.93 z"
         class="cls-1"
         inkscape:connector-curvature="0"
         style="fill:#81b3d2" />
      <path
         id="path3781"
         d="m 30.25,-142.96246 a 2.08,2.08 0 0 1 -2.11,-2 2.15,2.15 0 0 1 2.17,-2 1.93,1.93 0 0 1 2.07,2 2.08,2.08 0 0 1 -2.09,2 z"
         class="cls-1"
         inkscape:connector-curvature="0"
         style="fill:#81b3d2" />
      <path
         id="path3783"
         d="m 46.47,-142.96246 a 2.0006249,2.0006249 0 0 1 -0.1,-4 2.19,2.19 0 0 1 2.16,2 2.06,2.06 0 0 1 -2.06,2 z"
         class="cls-1"
         inkscape:connector-curvature="0"
         style="fill:#81b3d2" />
      <path
         id="path3785"
         d="m 38.25,-142.03246 a 2.09,2.09 0 0 1 2.25,1.92 v 0.07 a 2.13,2.13 0 0 1 -4.25,0.09 2,2 0 0 1 1.9,-2.08 z"
         class="cls-1"
         inkscape:connector-curvature="0"
         style="fill:#81b3d2" />
    </g>
  </g>
</svg>
