<svg xmlns="http://www.w3.org/2000/svg" viewBox="0 0 107.14 18.37"><title>Ресурс 3</title><g id="Слой_2" data-name="Слой 2"><g id="grey_back_white_back_back-desktop.jpg_intro-triangle.svg_text-sedona.svg_Layer_17_copy_Иванов_Скорее_положительное_Скорее_отрицательное_Layer_17_copy_7_Александрович_Layer_17_copy_6_x2B" data-name="grey back + white back + back-desktop.jpg + intro-triangle.svg + text-sedona.svg + Layer 17 copy + Иванов + Скорее положительное + Скорее отрицательное + Layer 17 copy 7 + Александрович + Layer 17 copy 6  x2B"><polyline points="91.12 3.21 107.06 3.21 107.06 5.48 99.09 9.16 91.12 5.16"/><polyline points="91.12 7.18 91.12 15.16 107.14 15.16 107.14 7.18 99.09 11.31"/><path d="M6.14,1.47A4.07,4.07,0,0,0,3.47,0,3.75,3.75,0,0,0,.68.89C-.65,2.3.3,5,.76,6.39c2.56,7.42,10,10.88,14.17,11.79a3.91,3.91,0,0,0,3.17-.29c1.49-1.07,2-4.08.46-5.58-1.09-1.06-3.1-1.28-4-.5-.39.35-.26.65-.58.83-.81.46-2-1.25-5.17-3.58-1.31-1-2.4-1.6-2.41-2.63,0-.43.19-.5.37-1.12A4.55,4.55,0,0,0,6.14,1.47Z"/></g></g></svg>