<svg xmlns="http://www.w3.org/2000/svg" viewBox="0 0 76.8 450.79"><defs><style>.cls-1{fill:#81b3d2;}</style></defs><title>Ресурс 2</title><g id="Слой_2" data-name="Слой 2"><g id="Слой_1-2" data-name="Слой 1"><path class="cls-1" d="M70.06,412.65c-.06,1.23-.92,1.79-1.86,2.38a2.93,2.93,0,0,0-1,1.4,4.14,4.14,0,0,0,0,1.42v32.93H9.27c0-.55-.07-1.1-.07-1.64V417.37c0-1.19,0-2.22-1.54-2.6a2.07,2.07,0,0,1-1.37-2.13V400.7A2.69,2.69,0,0,1,9,398h.21c2.35,0,4.7,0,7,0H27.86a11.7,11.7,0,0,0,1.67-.25v-.33l-4.16-2.36a22.7,22.7,0,0,1-7.6-6.35,7,7,0,0,1,1-9.76,16.22,16.22,0,0,1,2.66-2.12,7.72,7.72,0,0,1,3.43-1c3.46-.07,6,2.89,7,4A13.72,13.72,0,0,1,33,381.5c2.54,4,3,6.3,4.22,10.57.12.42.59.75.89,1.12.29-.38.74-.71.83-1.13a30.54,30.54,0,0,1,3.17-8.67c3-5.37,9.61-6.08,13.35-1.32,1.42,1.81,2.41,3.71.61,6.43A22.16,22.16,0,0,1,48.73,395c-1.43.88-2.92,1.68-4.38,2.52v.31a16.47,16.47,0,0,0,2,.25H66.63c1.93,0,2.93.75,3.4,2.42Zm-6,19V417c0-1.71-.17-1.85-1.83-1.86H46.89c-1.75,0-2,.2-2,2v29.14c0,1.42.15,1.58,1.58,1.58h16c1.14,0,1.52-.39,1.51-1.52C64,441.48,64,436.63,64,431.65Zm-51.62,0q0,7.16,0,14.32c0,1.78.12,1.92,1.86,1.92H29.9c1.52,0,1.71-.21,1.71-1.73V417c0-1.44-.4-1.87-1.7-1.87H14.4c-1.77,0-2,.26-2,2Q12.4,424.41,12.41,431.65Zm22.25-7v21.39c0,1.59.18,1.76,1.79,1.78h3.11c1.92,0,2.05-.13,2.05-2V403.69a10.58,10.58,0,0,0,0-1.08,1.37,1.37,0,0,0-1.3-1.44H37.08c-2.17,0-2.39.21-2.39,2.39Q34.65,414.15,34.66,424.68ZM20.52,411.95h9.54c.88,0,1.58-.16,1.57-1.29v-7.88c0-1.12-.53-1.64-1.7-1.64H11.2c-1.44,0-1.76.33-1.77,1.76v7.28c0,1.54.15,1.72,1.69,1.73,3.13.1,6.25.08,9.39.08Zm35.33,0h9.43c1.08,0,1.58-.38,1.54-1.55-.07-2.39,0-4.78,0-7.17,0-1.82-.25-2.07-2.07-2.08H46.71c-1.5,0-1.75.22-1.76,1.71v7.65c0,1.12.45,1.46,1.5,1.45,3.11,0,6.25,0,9.4,0ZM34.43,395.81l.24-.31c-.55-2-1-4.07-1.66-6a25.24,25.24,0,0,0-3.82-7.75c-2.82-3.5-6-2.75-8.54-.14-1.32,1.37-1.7,2.54-.7,4.44a13.85,13.85,0,0,0,4.9,4.93,76.29,76.29,0,0,0,6.69,3.81A20.36,20.36,0,0,0,34.43,395.81Zm7.41-2.67c.21,1.15.5,1.39,1.49,1a21.84,21.84,0,0,0,2-1,22.39,22.39,0,0,0,6.9-5c1.46-1.62,1.73-3.36.47-4.56s-3.72-2.41-5.4-1a10.26,10.26,0,0,0-2.65,3.25c-1.12,2.34-1.89,4.84-2.81,7.28Z"/><path class="cls-1" d="M65.87,221.45a15.1,15.1,0,0,0-.22,1.72v33.08c0,1.21.46,1.66,1.59,1.62h2.27c1.39,0,1.08,1.06,1.15,1.89s-.39,1.12-1.21,1.11H8.18c-1,0-1.7,0-1.6-1.33.1-1.49.17-1.65,1.63-1.68h.72c1.45,0,1.62-.22,1.62-1.68V223.32a14.5,14.5,0,0,0-.15-1.48l-.35-.24c-.73.61-1.48,1.17-2.16,1.82-1.4,1.3-2.72,2.73-4.09,4.06-.81.8-1.78.61-2.76-.69-.52-.68-.14-1.21.47-1.8q8-7.76,15.93-15.61c6.4-6.36,12.75-12.78,19.14-19.17,1.37-1.33,1.66-1.33,3.07,0L50,200.65c.33.33.69.61,1.29,1.14a16.92,16.92,0,0,0,.28-2V191c0-1.55.2-1.72,1.71-1.73h10.4c1.77,0,2,.19,2,2,0,7.49.06,14.93,0,22.45a5.37,5.37,0,0,0,2.2,4.65,97.28,97.28,0,0,1,7,7c.9.93.12,1.57-.52,2.19a1.22,1.22,0,0,1-2,0Q70,225,67.48,222.61A16.58,16.58,0,0,0,65.87,221.45ZM38,257.88H60.36c2.13,0,2.13,0,2.13-2.07V219a2.72,2.72,0,0,0-.83-2.27c-2.78-2.6-5.5-5.27-8.19-8L39.54,194.86c-1.29-1.26-1.59-1.25-2.88,0Q25.85,205.56,15,216.23a3.9,3.9,0,0,0-1.33,3v37c0,1.53.08,1.61,1.63,1.61Zm23.76-45.19.46-.25a5.09,5.09,0,0,0,.26-1.12V193.9c0-.93-.46-1.36-1.41-1.33H56.52c-1.54,0-1.83.45-1.84,1.87,0,2.63.12,5.26,0,7.88a5.87,5.87,0,0,0,2.08,5.14C58.56,209.08,60.08,210.94,61.75,212.69Z"/><path class="cls-1" d="M38.33,45.14H71.66a5.13,5.13,0,0,1,4.53,2.12c1.11,1.56.65,7.55-.83,8.77a5.06,5.06,0,0,1-2.45,1,1.32,1.32,0,0,0-1.35,1.44,9.32,9.32,0,0,1-4.48,7.84,9,9,0,0,1-4.42,1.5q-24.3.16-48.61,0a8.56,8.56,0,0,1-7.07-4,9.33,9.33,0,0,1-1.85-5.43c0-.83-.41-1.24-1.32-1.33A3.86,3.86,0,0,1,0,53.09q0-.12,0-.23c0-1.12.1-2.24,0-3.35-.28-2.63,2-4.2,4.19-4.39,1-.09,1.91,0,2.87,0Zm0,11.95H11.45c-3,0-3.48.62-2.5,3.52a4.4,4.4,0,0,0,.56,1,7.48,7.48,0,0,0,6.65,3.24H60.58a8.82,8.82,0,0,0,1.31,0c2.68-.41,5.44-2.19,6.07-5.11.43-2,0-2.63-2.06-2.63Zm0-3.19H70c3.65,0,3.63,0,3.58-3.64a1.61,1.61,0,0,0-1.48-1.74H72a6.65,6.65,0,0,0-1.19,0h-65a7,7,0,0,0-1.08,0c-1,.16-1.71.63-1.61,1.81v1.19c0,2.11.31,2.4,2.44,2.4Z"/><path class="cls-1" d="M38.32,30.84H7.63c-2.3,0-2.46-.15-2.46-2.42A25.18,25.18,0,0,1,9.61,14.36a28.38,28.38,0,0,1,9.06-8.81A58.08,58.08,0,0,1,26.29,2C31.27-.09,36.53-.21,41.78.17A54.66,54.66,0,0,1,50.24,2a26.41,26.41,0,0,1,8.13,3.81,29.44,29.44,0,0,1,9.09,9.13,25,25,0,0,1,4.09,13.6c0,2.14-.22,2.36-2.43,2.36Zm-.13-3.33H65.65c2.35,0,2.47-.14,2.2-2.37-.58-4.73-2.87-8.62-6-12.07a30.36,30.36,0,0,0-8.52-6.36A34.09,34.09,0,0,0,42,3.32a29.56,29.56,0,0,0-9.83.44A31.8,31.8,0,0,0,18,10.1c-5.16,4.12-8.54,9.33-9.38,16a1.12,1.12,0,0,0,.86,1.32l.14,0a6.06,6.06,0,0,0,1.3,0Z"/><path class="cls-1" d="M72.39,36.71A38.07,38.07,0,0,0,68,39.88c-2.77,2.66-4.22-.36-6.06-1.32-1.53-.8-1.83-1-3.28.11a23.15,23.15,0,0,1-2.87,2,2.13,2.13,0,0,1-1.77,0,34.92,34.92,0,0,1-3.42-2.43,1.83,1.83,0,0,0-2.41,0,36,36,0,0,1-3.42,2.44,2.22,2.22,0,0,1-1.86,0,29.56,29.56,0,0,1-3.34-2.39,1.84,1.84,0,0,0-2.41-.07c-1.14.82-2.23,1.72-3.43,2.43a2.09,2.09,0,0,1-1.76.07,30.64,30.64,0,0,1-3.34-2.36,2,2,0,0,0-2.71,0,29.37,29.37,0,0,1-3.34,2.36,2,2,0,0,1-1.66,0,33.13,33.13,0,0,1-3.15-2.21c-1.28-.95-1.71-.95-3,0a32.39,32.39,0,0,1-3.16,2.2,1.82,1.82,0,0,1-1.56.14c-2-1.32-3.88-2.77-5.82-4.18a12.94,12.94,0,0,1,.83-1.33c.6-.73,1.25-1.21,2.21-.46.68.55,1.44,1,2.12,1.53a1.83,1.83,0,0,0,2.58,0c1-.82,2.11-1.55,3.2-2.29a1.85,1.85,0,0,1,2.33.08c1,.77,2.05,1.49,3,2.28a1.7,1.7,0,0,0,2.29,0c1.1-.79,2.17-1.59,3.28-2.38a1.91,1.91,0,0,1,2.43.1l3.18,2.31a1.68,1.68,0,0,0,2.19,0c1-.76,2.05-1.5,3.07-2.26a2,2,0,0,1,2.63,0,32.73,32.73,0,0,0,3.25,2.34,2.21,2.21,0,0,0,1.84.09A29,29,0,0,0,48,34.36a2,2,0,0,1,2.62,0,30,30,0,0,0,3.3,2.33,2.35,2.35,0,0,0,2,0,25.53,25.53,0,0,0,3.18-2.3,2,2,0,0,1,2.63,0l3.07,2.28a1.71,1.71,0,0,0,2.2,0c.74-.54,1.45-1.11,2.22-1.6,1.1-.72,1.71-.57,2.45.54A13.41,13.41,0,0,1,72.39,36.71Z"/><path class="cls-1" d="M30.1,241.89V231.62c0-1.35.25-1.62,1.6-1.62h13c1.46,0,1.64.21,1.64,1.67v20.66c0,1.43-.21,1.71-1.63,1.72h-13c-1.27,0-1.61-.39-1.61-1.67C30.09,248.9,30.1,245.39,30.1,241.89Zm3.34.15v7.53c0,.71.13,1.31,1,1.32H42a1,1,0,0,0,1.14-1.11V234.73c0-1.12-.62-1.62-1.77-1.59-2,0-4,0-6,0-1.63,0-1.86.22-1.88,1.85C33.42,237.34,33.43,239.66,33.43,242Z"/><path class="cls-1" d="M46,216.17c.22,4.42-3.92,7.87-7.8,7.8A7.88,7.88,0,0,1,38,208.23C42.37,208.25,46.12,211.26,46,216.17Zm-12.53-.11c-.23,3,2.87,4.9,4.72,4.87,2.51,0,5-2.34,4.82-4.81-.17-2.88-1.91-4.77-4.89-4.83A4.7,4.7,0,0,0,33.51,216Z"/><path class="cls-1" d="M20.67,232c0,2.06-.31,2.38-2.1,2.13a1,1,0,0,1-.35-.06c-1.27-.77-.53-2-.67-3-.1-.77.46-1,1.14-1C20.51,229.86,20.67,230,20.67,232Z"/><path class="cls-1" d="M26.92,232c-.27,2-.4,2.12-1.89,2.16-1.14,0-1.61-.46-1.52-1.57v-.72c0-1.73.88-2.46,2.46-1.76C26.46,230.31,26.61,231.33,26.92,232Z"/><path class="cls-1" d="M52.71,232.05c0,1.86-.16,2.06-1.59,2.07s-1.54-.17-1.56-1.58v-1c0-1.51.13-1.63,1.61-1.62S52.71,230.1,52.71,232.05Z"/><path class="cls-1" d="M58.95,232c-.28,1.93-.43,2.14-1.78,2.17s-1.63-.16-1.64-1.61v-.71c0-1.71.89-2.42,2.44-1.7C58.47,230.34,58.63,231.32,58.95,232Z"/><path class="cls-1" d="M20.67,238c0,2-.46,2.49-2.22,2.09-.3-.07-.77-.36-.79-.59a7.16,7.16,0,0,1,.08-2.93c.14-.39,1.35-.51,2.08-.52.29,0,.65.6.85,1S20.67,237.67,20.67,238Z"/><path class="cls-1" d="M26.64,238c0,2-.45,2.49-2.21,2.1-.3-.07-.77-.36-.79-.58a7.17,7.17,0,0,1,.07-2.93c.14-.39,1.34-.52,2.07-.52.29,0,.66.6.86,1S26.64,237.67,26.64,238Z"/><path class="cls-1" d="M49.55,238c0-1.89.06-2,1.47-2s1.67.13,1.68,1.69v.59c0,1.64-.22,1.87-1.68,1.86s-1.46-.18-1.46-1.79C49.55,238.2,49.55,238.08,49.55,238Z"/><path class="cls-1" d="M55.33,238c.2-2,.28-2.06,1.8-2.05s1.53.17,1.54,1.59v.83c0,1.53-1.36,2.42-2.6,1.56C55.57,239.66,55.57,238.66,55.33,238Z"/><path class="cls-1" d="M30.25,12a2.08,2.08,0,0,1-2.11-2A2.15,2.15,0,0,1,30.31,8a1.93,1.93,0,0,1,2.07,2A2.08,2.08,0,0,1,30.29,12Z"/><path class="cls-1" d="M46.47,12A2,2,0,0,1,46.37,8,2.19,2.19,0,0,1,48.53,10,2.06,2.06,0,0,1,46.47,12Z"/><path class="cls-1" d="M38.25,12.93a2.09,2.09,0,0,1,2.25,1.92v.07a2.13,2.13,0,0,1-4.25.09,2,2,0,0,1,1.9-2.08Z"/></g></g></svg>