<svg xmlns="http://www.w3.org/2000/svg" viewBox="0 0 21.94 21.38"><defs><style>.cls-1{fill:#fff;}</style></defs><title>Ресурс 3</title><g id="Слой_2" data-name="Слой 2"><g id="Слой_1-2" data-name="Слой 1"><path class="cls-1" d="M13.76,0a3.23,3.23,0,0,1,1.6.24A8.42,8.42,0,0,1,15.76,2a9.69,9.69,0,0,1,0,2,18.44,18.44,0,0,1-.4,2.68c.39.16.83.39,1.34.57a6.5,6.5,0,0,0,1.71.28c2.27.4,3.25,4.11,3.35,4.47s.37,1.51-.08,1.88a3.32,3.32,0,0,1-.75.65s-.05.15-.06.22c0,1.1.14,2.15-.89,3.08-.34.31-.23,1.27-1,1.75-.52.34-.78,1.06-1.22,1.55a1.09,1.09,0,0,1-.74.23c-3.28,0-6.56,0-9.84,0a1.52,1.52,0,0,1-1.7-1.69c0-4.16,0-8.32,0-12.47a2.27,2.27,0,0,1,.64-1.39c.73-.76,1.61-1.37,2.37-2.1a15.23,15.23,0,0,0,1.2-1.43,3.33,3.33,0,0,1,.48-.43A9.76,9.76,0,0,1,13.76,0ZM8.64,17.78c2.05,0,4,0,5.94,0,.51,0,1,.42,1.52.53.27.06.76,0,.87-.19a3.6,3.6,0,0,0,.32-1.23c.26-1.28,1.23-1.44,1.47-2.9a2.81,2.81,0,0,0,0-.58,4.38,4.38,0,0,0-1-2.42h0a19.65,19.65,0,0,0-2.5-.23c-.76,0-2.15,0-3.59,0-.82,0-1.14-.43-1.12-1.21,0-.58,0-1.16,0-1.75-.81.56-1.79,1.21-1.84,1.93C8.53,12.4,8.64,15,8.64,17.78Z"/><path class="cls-1" d="M0,7.7c1.12,0,2.23,0,3.35,0,.77,0,1.21.3,1.21,1.11,0,4.14,0,8.28,0,12.58H0Z"/></g></g></svg>