<svg xmlns="http://www.w3.org/2000/svg" viewBox="0 0 870.06 75.33"><defs><style>.cls-1{fill:#81b3d2;}</style></defs><title>Ресурс 1</title><g id="Слой_2" data-name="Слой 2"><g id="Слой_1-2" data-name="Слой 1"><path class="cls-1" d="M870.06,36.92c-.06,1.24-.92,1.8-1.87,2.39a2.94,2.94,0,0,0-1,1.41,4.16,4.16,0,0,0,0,1.43q0,15.65,0,31.31v1.76H809c0-.55-.07-1.1-.07-1.65q0-16,0-31.91c0-1.2,0-2.23-1.55-2.61A2.08,2.08,0,0,1,806,36.91c0-4,0-8,0-12a2.7,2.7,0,0,1,2.95-2.65c2.36-.05,4.72,0,7.08,0,3.88,0,7.76,0,11.64,0a11.75,11.75,0,0,0,1.68-.25l0-.33-4.18-2.37a22.8,22.8,0,0,1-7.63-6.38,7,7,0,0,1,1-9.8A16.29,16.29,0,0,1,821.21,1a7.75,7.75,0,0,1,3.45-1c3.48-.07,6.05,2.9,7,4a13.78,13.78,0,0,1,1.2,1.63c2.55,4,3,6.33,4.24,10.62.12.42.59.75.89,1.12.29-.38.74-.71.83-1.13A30.67,30.67,0,0,1,842,7.53c3.05-5.39,9.65-6.11,13.41-1.33,1.43,1.82,2.42,3.73.61,6.46a22.26,22.26,0,0,1-7.39,6.5c-1.44.88-2.93,1.69-4.4,2.53V22a16.54,16.54,0,0,0,2,.25c6.79,0,13.59,0,20.38,0,1.94,0,2.94.75,3.41,2.43ZM864,56c0-4.92,0-9.84,0-14.75,0-1.72-.17-1.86-1.84-1.87H846.78c-1.76,0-2,.2-2,2q0,14.63,0,29.27c0,1.43.15,1.59,1.59,1.59,5.36,0,10.72,0,16.07,0,1.15,0,1.53-.39,1.52-1.53C864,65.87,864,61,864,56ZM812.15,56q0,7.19,0,14.38c0,1.79.12,1.93,1.87,1.93q7.85,0,15.7,0c1.53,0,1.72-.21,1.72-1.74q0-10.07,0-20.14c0-3,0-6.07,0-9.11,0-1.45-.4-1.88-1.71-1.88q-7.79,0-15.58,0c-1.78,0-2,.26-2,2Q812.14,48.73,812.15,56ZM834.5,49q0,10.74,0,21.48c0,1.6.18,1.77,1.8,1.79h3.12c1.93,0,2.06-.13,2.06-2q0-21.18,0-42.35a10.64,10.64,0,0,0,0-1.08,1.38,1.38,0,0,0-1.55-1.44c-1,0-2,0-3,0-2.18,0-2.4.21-2.4,2.4Q834.49,38.42,834.5,49Zm-14.2-12.79h9.58c.88,0,1.59-.16,1.58-1.3,0-2.64,0-5.27,0-7.91,0-1.12-.53-1.65-1.71-1.65-6.27,0-12.54,0-18.81,0-1.45,0-1.77.33-1.78,1.77,0,2.44,0,4.87,0,7.31,0,1.55.15,1.73,1.7,1.74C814,36.27,817.14,36.25,820.29,36.25Zm35.49,0h0c3.16,0,6.32,0,9.47,0,1.08,0,1.59-.38,1.55-1.56-.07-2.4,0-4.8,0-7.2,0-1.83-.25-2.08-2.08-2.09H846.6c-1.51,0-1.76.22-1.77,1.72,0,2.56,0,5.12,0,7.68,0,1.12.45,1.47,1.51,1.46C849.46,36.23,852.62,36.25,855.78,36.25ZM834.27,20l.24-.31c-.55-2-1-4.09-1.67-6.06A25.35,25.35,0,0,0,829,5.85c-2.83-3.52-6.06-2.76-8.58-.14-1.33,1.38-1.71,2.55-.7,4.46a13.91,13.91,0,0,0,4.92,4.95c2.14,1.42,4.44,2.63,6.72,3.83A20.45,20.45,0,0,0,834.27,20Zm7.44-2.68c.21,1.16.5,1.4,1.5,1,.7-.28,1.35-.66,2-1a22.49,22.49,0,0,0,6.93-5c1.47-1.63,1.74-3.37.47-4.58s-3.74-2.42-5.42-1A10.3,10.3,0,0,0,844.53,10C843.41,12.35,842.63,14.86,841.71,17.31Z"/><path class="cls-1" d="M65.34,35.71a15.17,15.17,0,0,0-.22,1.73c0,11.08,0,22.15,0,33.23,0,1.22.46,1.67,1.6,1.63.76,0,1.52,0,2.28,0,1.4,0,1.08,1.06,1.16,1.9s-.39,1.12-1.22,1.11q-14.69,0-29.39,0-16.07,0-32.15,0c-1,0-1.71,0-1.61-1.34.1-1.5.17-1.66,1.64-1.69h.72c1.46-.05,1.63-.22,1.63-1.69q0-16.49,0-33a14.56,14.56,0,0,0-.15-1.49l-.35-.24c-.73.61-1.49,1.18-2.17,1.83C5.7,39,4.38,40.43,3,41.77c-.81.8-1.79.61-2.77-.69-.52-.68-.14-1.22.47-1.81q8-7.79,16-15.68c6.43-6.39,12.81-12.84,19.22-19.25C37.3,3,37.59,3,39,4.37L49.36,14.82c.33.33.69.61,1.3,1.15a17,17,0,0,0,.28-2c0-3,0-5.92,0-8.88,0-1.56.2-1.73,1.72-1.74H63.11c1.78,0,2,.19,2,2,0,7.52.06,15,0,22.55a5.39,5.39,0,0,0,2.21,4.67,97.71,97.71,0,0,1,7.08,7c.9.93.12,1.58-.52,2.2a1.23,1.23,0,0,1-2,0q-2.43-2.47-4.92-4.89A16.65,16.65,0,0,0,65.34,35.71Zm-28,36.59H59.81c2.14,0,2.14,0,2.14-2.08q0-11.16,0-22.31,0-7.32,0-14.63A2.73,2.73,0,0,0,61.12,31c-2.79-2.61-5.52-5.29-8.23-8q-7-7-14-14C37.59,7.73,37.29,7.74,36,9Q25.14,19.75,14.26,30.47a3.92,3.92,0,0,0-1.34,3c0,12.4,0,24.79,0,37.19,0,1.54.08,1.62,1.64,1.62ZM61.2,26.91l.46-.25a5.11,5.11,0,0,0,.26-1.12q0-8.75,0-17.5c0-.93-.46-1.37-1.42-1.34-1.52,0-3,0-4.55,0s-1.84.45-1.85,1.88c0,2.64.12,5.28,0,7.91a5.9,5.9,0,0,0,2.09,5.16C58,23.29,59.53,25.15,61.2,26.91Z"/><path class="cls-1" d="M438.44,51.47h33.47a5.15,5.15,0,0,1,4.55,2.13c1.11,1.57.65,7.58-.83,8.81a5.08,5.08,0,0,1-2.46,1,1.33,1.33,0,0,0-1.36,1.45,9.36,9.36,0,0,1-4.5,7.87,9.08,9.08,0,0,1-4.44,1.51q-24.41.16-48.82,0a8.6,8.6,0,0,1-7.1-4.05,9.37,9.37,0,0,1-1.86-5.45c0-.83-.41-1.25-1.33-1.34a3.88,3.88,0,0,1-3.8-4.18c0-1.12.1-2.25,0-3.36-.28-2.64,2-4.22,4.21-4.41,1-.09,1.92,0,2.88,0Zm0,12h-27c-3.06,0-3.5.62-2.51,3.54a4.42,4.42,0,0,0,.56,1,7.51,7.51,0,0,0,6.68,3.25h44.61a8.86,8.86,0,0,0,1.32,0c2.69-.41,5.46-2.2,6.1-5.13.43-2,0-2.64-2.07-2.64Zm0-3.2h31.79c3.67,0,3.65,0,3.6-3.66a1.62,1.62,0,0,0-1.56-1.75,6.68,6.68,0,0,0-1.2,0H405.8a7,7,0,0,0-1.08,0c-1,.16-1.72.63-1.62,1.82,0,.4,0,.8,0,1.2,0,2.12.31,2.41,2.45,2.41Z"/><path class="cls-1" d="M438.43,37.11H407.6c-2.31,0-2.47-.15-2.47-2.43a25.29,25.29,0,0,1,4.46-14.13,28.5,28.5,0,0,1,9.1-8.85,58.33,58.33,0,0,1,7.65-3.56c5-2.1,10.29-2.22,15.56-1.84a54.9,54.9,0,0,1,8.5,1.79,26.53,26.53,0,0,1,8.17,3.83,29.57,29.57,0,0,1,9.13,9.17,25.16,25.16,0,0,1,4.11,13.66c0,2.15-.22,2.37-2.44,2.37Zm-.13-3.34h27.58c2.36,0,2.48-.14,2.21-2.38-.58-4.75-2.88-8.66-6-12.12a30.49,30.49,0,0,0-8.56-6.39,34.24,34.24,0,0,0-11.39-3.41,29.69,29.69,0,0,0-9.87.44A31.94,31.94,0,0,0,418,16.28c-5.18,4.14-8.58,9.37-9.42,16.08a1.12,1.12,0,0,0,1,1.35,6.09,6.09,0,0,0,1.31.05Z"/><path class="cls-1" d="M472.65,43a38.24,38.24,0,0,0-4.39,3.19c-2.78,2.67-4.24-.36-6.09-1.33-1.54-.8-1.84-1-3.29.11A23.25,23.25,0,0,1,456,47a2.14,2.14,0,0,1-1.78,0,35.08,35.08,0,0,1-3.44-2.44,1.84,1.84,0,0,0-2.42,0,36.14,36.14,0,0,1-3.44,2.45,2.23,2.23,0,0,1-1.87,0,29.69,29.69,0,0,1-3.35-2.4,1.85,1.85,0,0,0-2.42-.07c-1.15.82-2.24,1.73-3.45,2.44a2.1,2.1,0,0,1-1.77.07,30.77,30.77,0,0,1-3.35-2.37,2,2,0,0,0-2.72,0,29.5,29.5,0,0,1-3.35,2.37,2,2,0,0,1-1.67,0,33.28,33.28,0,0,1-3.16-2.22c-1.29-.95-1.72-.95-3,0-1,.76-2.06,1.56-3.17,2.21a1.83,1.83,0,0,1-1.57.14c-2-1.33-3.9-2.78-5.85-4.2a13,13,0,0,1,.83-1.34c.6-.73,1.26-1.22,2.22-.46.68.55,1.45,1,2.13,1.54a1.84,1.84,0,0,0,2.59,0c1-.82,2.12-1.56,3.21-2.3a1.86,1.86,0,0,1,2.34.08c1,.77,2.06,1.5,3.06,2.29a1.71,1.71,0,0,0,2.3,0c1.1-.79,2.18-1.6,3.29-2.39a1.92,1.92,0,0,1,2.44.1l3.19,2.32a1.69,1.69,0,0,0,2.2,0c1-.76,2.06-1.51,3.08-2.27a2,2,0,0,1,2.64,0A32.87,32.87,0,0,0,443,42.9a2.22,2.22,0,0,0,1.85.09,29.17,29.17,0,0,0,3.3-2.35,2,2,0,0,1,2.63,0,30.16,30.16,0,0,0,3.31,2.34,2.36,2.36,0,0,0,2,0,25.64,25.64,0,0,0,3.19-2.31,2,2,0,0,1,2.64-.05L465,42.91a1.72,1.72,0,0,0,2.21,0c.74-.54,1.46-1.11,2.23-1.61,1.1-.72,1.72-.57,2.46.54C472.14,42.14,472.31,42.46,472.65,43Z"/><path class="cls-1" d="M29.41,56.24c0-3.44,0-6.88,0-10.32,0-1.36.25-1.63,1.61-1.63q6.54,0,13.08,0c1.47,0,1.65.21,1.65,1.68q0,10.38,0,20.75c0,1.44-.21,1.72-1.64,1.73-4.36,0-8.72,0-13.08,0-1.28,0-1.62-.39-1.62-1.68C29.4,63.28,29.41,59.76,29.41,56.24Zm3.35.15c0,2.52,0,5,0,7.56,0,.71.13,1.32,1,1.33,2.52,0,5,0,7.56,0a1,1,0,0,0,1.14-1.11c0-5,0-10.08,0-15.12,0-1.12-.62-1.63-1.78-1.6-2,.05-4,0-6,0-1.64,0-1.87.22-1.89,1.86C32.75,51.67,32.76,54,32.76,56.39Z"/><path class="cls-1" d="M45.43,30.41c.22,4.44-3.94,7.9-7.83,7.83a7.91,7.91,0,0,1-.21-15.81C41.74,22.45,45.5,25.48,45.43,30.41ZM32.84,30.3c-.23,3,2.88,4.92,4.74,4.89,2.52,0,5-2.35,4.84-4.83-.17-2.89-1.92-4.79-4.91-4.85A4.72,4.72,0,0,0,32.84,30.3Z"/><path class="cls-1" d="M19.94,46.29c0,2.07-.31,2.39-2.11,2.14a1,1,0,0,1-.35-.06c-1.28-.77-.53-2-.67-3.05-.1-.77.46-1,1.15-1C19.78,44.16,19.94,44.31,19.94,46.29Z"/><path class="cls-1" d="M26.22,46.28c-.27,2-.4,2.13-1.9,2.17-1.15,0-1.62-.46-1.53-1.58,0-.24,0-.48,0-.72,0-1.74.88-2.47,2.47-1.77C25.76,44.61,25.91,45.63,26.22,46.28Z"/><path class="cls-1" d="M52.12,46.36c0,1.87-.16,2.07-1.6,2.08s-1.55-.17-1.57-1.59c0-.32,0-.63,0-1,0-1.52.13-1.64,1.62-1.63S52.12,44.4,52.12,46.36Z"/><path class="cls-1" d="M58.39,46.26c-.28,1.94-.43,2.15-1.79,2.18s-1.64-.16-1.65-1.62c0-.24,0-.48,0-.71,0-1.72.89-2.43,2.45-1.71C57.91,44.64,58.07,45.62,58.39,46.26Z"/><path class="cls-1" d="M19.94,52.31c0,2-.46,2.5-2.23,2.1-.3-.07-.77-.36-.79-.59A7.19,7.19,0,0,1,17,50.88c.14-.39,1.36-.51,2.09-.52.29,0,.65.6.85,1S19.94,52,19.94,52.31Z"/><path class="cls-1" d="M25.94,52.3c0,2.05-.45,2.5-2.22,2.11-.3-.07-.77-.36-.79-.58A7.2,7.2,0,0,1,23,50.89c.14-.39,1.35-.52,2.08-.52.29,0,.66.6.86,1S25.94,52,25.94,52.3Z"/><path class="cls-1" d="M48.95,52.29c0-1.9.06-2,1.48-2s1.68.13,1.69,1.7q0,.3,0,.59c0,1.65-.22,1.88-1.69,1.87s-1.47-.18-1.47-1.8C48.95,52.53,48.95,52.41,48.95,52.29Z"/><path class="cls-1" d="M54.75,52.35c.2-2,.28-2.07,1.81-2.06,1.38,0,1.54.17,1.55,1.6q0,.42,0,.83c0,1.54-1.37,2.43-2.61,1.57C55,54,55,53,54.75,52.35Z"/><path class="cls-1" d="M430.32,18.2a2.09,2.09,0,0,1-2.12-2,2.16,2.16,0,0,1,2.18-2.08,1.94,1.94,0,0,1,2.08,2A2.09,2.09,0,0,1,430.32,18.2Z"/><path class="cls-1" d="M446.61,18.2a2,2,0,1,1-.1-4.08,2.2,2.2,0,0,1,2.17,2.09A2.07,2.07,0,0,1,446.61,18.2Z"/><path class="cls-1" d="M438.35,19.12a2.1,2.1,0,0,1,2.26,2,2.14,2.14,0,0,1-4.27.09A2,2,0,0,1,438.35,19.12Z"/></g></g></svg>