<?xml version="1.0" encoding="UTF-8" standalone="no"?>
<svg
   xmlns:dc="http://purl.org/dc/elements/1.1/"
   xmlns:cc="http://creativecommons.org/ns#"
   xmlns:rdf="http://www.w3.org/1999/02/22-rdf-syntax-ns#"
   xmlns:svg="http://www.w3.org/2000/svg"
   xmlns="http://www.w3.org/2000/svg"
   xmlns:sodipodi="http://sodipodi.sourceforge.net/DTD/sodipodi-0.dtd"
   xmlns:inkscape="http://www.inkscape.org/namespaces/inkscape"
   viewBox="0 0 43.491001 54.622967"
   width="43.491001"
   height="54.622967"
   version="1.1"
   id="svg8"
   sodipodi:docname="logo-html.svg"
   inkscape:version="0.92.1 r15371">
  <metadata
     id="metadata14">
    <rdf:RDF>
      <cc:Work
         rdf:about="">
        <dc:format>image/svg+xml</dc:format>
        <dc:type
           rdf:resource="http://purl.org/dc/dcmitype/StillImage" />
        <dc:title></dc:title>
      </cc:Work>
    </rdf:RDF>
  </metadata>
  <defs
     id="defs12" />
  <sodipodi:namedview
     pagecolor="#ffffff"
     bordercolor="#666666"
     borderopacity="1"
     objecttolerance="10"
     gridtolerance="10"
     guidetolerance="10"
     inkscape:pageopacity="0"
     inkscape:pageshadow="2"
     inkscape:window-width="1920"
     inkscape:window-height="1017"
     id="namedview10"
     showgrid="false"
     fit-margin-top="0"
     fit-margin-left="0"
     fit-margin-right="0"
     fit-margin-bottom="0"
     inkscape:zoom="4.7204969"
     inkscape:cx="132.30186"
     inkscape:cy="18.142152"
     inkscape:window-x="-8"
     inkscape:window-y="-8"
     inkscape:window-maximized="1"
     inkscape:current-layer="svg8" />
  <path
     d="m 1.3954999,3.5029107 20.4000001,-2.1 20.3,2.1 V 41.002911 l -20.3,12 -20.4000001,-12 z"
     id="path2"
     inkscape:connector-curvature="0"
     style="fill:none;stroke:#aaa;stroke-width:2.79099989" />
  <path
     d="M 1.6954999,20.902911 21.0955,9.6029107 l 20.9,11.3000003 v 1.2 l -20.2,11.9 -20.1000001,-11.9 z"
     id="path4"
     inkscape:connector-curvature="0"
     style="fill:none;stroke:#aaa;stroke-width:2.05699992" />
  <path
     d="m 21.7955,32.802911 2.9,-1.9 -2.9,-1.9 v -1.9 l 4.7,2.8 1.5,-0.9 -6.2,-3.7 v -2.2 l 7.9,4.8 1.6,-0.9 -9.5,-5.9 v -2.1 l 12.9,7.9 v 8.4 l -12.9,7.8 -13.1000001,-7.6 v -2.2 l 13.1000001,7.9 v -2.1 l -13.1000001,-7.7 v -1.9 l 13.1000001,7.6 z"
     id="path6"
     inkscape:connector-curvature="0"
     style="fill:#aaa"
     sodipodi:nodetypes="ccccccccccccccccccccccc" />
</svg>
